<?xml version="1.0" encoding="utf-8"?>
<!-- Generator: Adobe Illustrator 22.0.1, SVG Export Plug-In . SVG Version: 6.00 Build 0)  -->
<svg version="1.1" id="Layer_1" xmlns="http://www.w3.org/2000/svg" xmlns:xlink="http://www.w3.org/1999/xlink" x="0px" y="0px"
	 viewBox="0 0 1692.9 1137" style="enable-background:new 0 0 1692.9 1137;" xml:space="preserve">
<style type="text/css">
	.st0{display:none;}
	.st1{fill:none;}
	.st2{fill:#004E29;}
	.st3{fill:#006837;}
	.st4{fill:#33865F;}
	.st5{fill:#9A916C;}
	.st6{fill:#FCEE21;}
	.st7{fill:#30312E;}
	.st8{fill:#363A44;}
	.st9{fill:#DBDDDA;}
	.st10{fill:#2A2D2E;}
	.st11{fill:#ECF6FD;}
	.st12{fill:#CCCCCC;}
	.st13{fill:#FFFFFF;}
	.st14{fill:#33CC33;}
	.st15{fill:#958863;}
	.st16{fill:#3D3F38;}
	.st17{fill:#5388B7;stroke:#2D2D2D;stroke-width:3;stroke-miterlimit:10;}
	.st18{fill:none;stroke:#FFFFFF;stroke-width:3;stroke-miterlimit:10;}
	.st19{fill:#262626;stroke:#3A3A3A;stroke-width:3;stroke-miterlimit:10;}
	.st20{fill:#FFF148;stroke:#B77F35;stroke-width:3;stroke-miterlimit:10;}
	.st21{fill:#EFEFEF;stroke:#4F4F4F;stroke-width:3;stroke-miterlimit:10;}
	.st22{fill:#EAEAEA;stroke:#4F4F4F;stroke-width:3;stroke-miterlimit:10;}
	.st23{fill:#DBDBDB;stroke:#4F4F4F;stroke-width:3;stroke-miterlimit:10;}
	.st24{fill:url(#SVGID_1_);stroke:#4F4F4F;stroke-width:3;stroke-miterlimit:10;}
	.st25{fill:#F2F2F2;stroke:#4F4F4F;stroke-width:3;stroke-miterlimit:10;}
	.st26{fill:none;stroke:#4F4F4F;stroke-width:3;stroke-miterlimit:10;}
	.st27{fill:none;stroke:#8C8C8C;stroke-width:12;stroke-linecap:round;stroke-miterlimit:10;}
	.st28{fill:#E58910;}
	.st29{enable-background:new    ;}
	.st30{fill:none;stroke:#E20E0E;stroke-width:11;stroke-linecap:round;stroke-miterlimit:10;}
	.st31{fill:none;stroke:#B7B7B7;stroke-width:3;stroke-miterlimit:10;}
	.st32{fill:#8C8C8C;}
	.st33{fill:none;stroke:#67CC0E;stroke-width:12;stroke-linecap:round;stroke-miterlimit:10;}
	.st34{fill:none;stroke:#2178D8;stroke-width:12;stroke-linecap:round;stroke-miterlimit:10;}
	.st35{fill:none;stroke:#333333;stroke-width:11;stroke-linecap:round;stroke-miterlimit:10;}
	.st36{fill:#D9B477;}
	.st37{fill:url(#SVGID_2_);}
	.st38{fill:#8B4513;}
	.st39{fill:#FF0000;}
	.st40{fill:none;stroke:#9614F2;stroke-width:12;stroke-linecap:round;stroke-miterlimit:10;}
	.st41{fill:none;stroke:#FF9700;stroke-width:12;stroke-linecap:round;stroke-miterlimit:10;}
	.st42{fill:none;stroke:#2BE0E0;stroke-width:11;stroke-linecap:round;stroke-linejoin:round;stroke-miterlimit:10;}
	.st43{fill:none;stroke:#E20E0E;stroke-width:11;stroke-linecap:round;stroke-linejoin:round;stroke-miterlimit:10;}
</style>
<g id="Layer_2_1_" class="st0">
</g>
<g id="Layer_1_1_">
	<g id="Picoboard_Icon">
		<g id="PCB_1_">
			<g>
				<path class="st1" d="M589,235.7c8.3,0,15.1-6.8,15.1-15.1s-6.8-15.1-15.1-15.1s-15.1,6.8-15.1,15.1S580.7,235.7,589,235.7z"/>
			</g>
			<g>
				<path class="st1" d="M782.7,1033.4c8.3,0,15.1-6.8,15.1-15.1s-6.8-15.1-15.1-15.1s-15.1,6.8-15.1,15.1
					C767.6,1026.6,774.4,1033.4,782.7,1033.4z"/>
			</g>
			<g>
				<path class="st1" d="M782.7,235.7c8.3,0,15.1-6.8,15.1-15.1s-6.8-15.1-15.1-15.1s-15.1,6.8-15.1,15.1S774.4,235.7,782.7,235.7z"
					/>
			</g>
			<g>
				<ellipse class="st1" cx="589" cy="1018.2" rx="15.1" ry="15.1"/>
			</g>
			<g>
				<g>
					<g>
						<path class="st2" d="M864.4,244.9v-28.7l0,0c-1.2,0-2.3-0.4-3.2-0.9v30.4C862.2,245.2,863.2,244.9,864.4,244.9L864.4,244.9z"
							/>
					</g>
					<g>
						<path class="st2" d="M864.4,288.1v-28.7l0,0c-1.2,0-2.3-0.4-3.2-0.9v30.4C862.2,288.4,863.2,288.1,864.4,288.1L864.4,288.1z"
							/>
					</g>
					<g>
						<path class="st2" d="M864.4,331.3v-28.7l0,0c-1.2,0-2.3-0.4-3.2-0.9v30.4C862.2,331.6,863.2,331.3,864.4,331.3L864.4,331.3z"
							/>
					</g>
					<g>
						<path class="st2" d="M864.4,374.5v-28.7l0,0c-1.2,0-2.3-0.4-3.2-0.9v30.4C862.2,374.8,863.2,374.5,864.4,374.5L864.4,374.5z"
							/>
					</g>
					<g>
						<path class="st2" d="M864.4,417.7V389l0,0c-1.2,0-2.3-0.4-3.2-0.9v30.4C862.2,418,863.2,417.7,864.4,417.7L864.4,417.7z"/>
					</g>
					<g>
						<path class="st2" d="M864.4,460.9v-28.7l0,0c-1.2,0-2.3-0.4-3.2-0.9v30.4C862.2,461.2,863.2,460.9,864.4,460.9L864.4,460.9z"
							/>
					</g>
					<g>
						<path class="st2" d="M864.4,504.1v-28.7l0,0c-1.2,0-2.3-0.4-3.2-0.9v30.4C862.2,504.4,863.2,504.1,864.4,504.1L864.4,504.1z"
							/>
					</g>
					<g>
						<path class="st2" d="M864.4,547.3v-28.7l0,0c-1.2,0-2.3-0.4-3.2-0.9v30.4C862.2,547.6,863.2,547.3,864.4,547.3L864.4,547.3z"
							/>
					</g>
					<g>
						<path class="st2" d="M864.4,590.5v-28.7l0,0c-1.2,0-2.3-0.4-3.2-0.9v30.4C862.2,590.8,863.2,590.5,864.4,590.5L864.4,590.5z"
							/>
					</g>
					<g>
						<path class="st2" d="M864.4,633.7V605l0,0c-1.2,0-2.3-0.4-3.2-0.9v30.4C862.2,634,863.2,633.7,864.4,633.7L864.4,633.7z"/>
					</g>
					<g>
						<path class="st2" d="M864.4,676.9v-28.7l0,0c-1.2,0-2.3-0.4-3.2-0.9v30.4C862.2,677.2,863.2,676.9,864.4,676.9L864.4,676.9z"
							/>
					</g>
					<g>
						<path class="st2" d="M864.4,720.1v-28.7l0,0c-1.2,0-2.3-0.4-3.2-0.9v30.4C862.2,720.4,863.2,720.1,864.4,720.1L864.4,720.1z"
							/>
					</g>
					<g>
						<path class="st2" d="M864.4,763.3v-28.7l0,0c-1.2,0-2.3-0.4-3.2-0.9v30.4C862.2,763.6,863.2,763.3,864.4,763.3L864.4,763.3z"
							/>
					</g>
					<g>
						<path class="st2" d="M864.4,806.5v-28.7l0,0c-1.2,0-2.3-0.4-3.2-0.9v30.4C862.2,806.8,863.2,806.5,864.4,806.5L864.4,806.5z"
							/>
					</g>
					<g>
						<path class="st2" d="M864.4,849.7V821l0,0c-1.2,0-2.3-0.4-3.2-0.9v30.4C862.2,850,863.2,849.7,864.4,849.7L864.4,849.7z"/>
					</g>
					<g>
						<path class="st2" d="M864.4,892.9v-28.7l0,0c-1.2,0-2.3-0.4-3.2-0.9v30.4C862.2,893.2,863.2,892.9,864.4,892.9L864.4,892.9z"
							/>
					</g>
					<g>
						<path class="st2" d="M864.4,936.1v-28.7l0,0c-1.2,0-2.3-0.4-3.2-0.9v30.4C862.2,936.4,863.2,936.1,864.4,936.1L864.4,936.1z"
							/>
					</g>
					<g>
						<path class="st2" d="M864.4,979.3v-28.7l0,0c-1.2,0-2.3-0.4-3.2-0.9v30.4C862.2,979.6,863.2,979.3,864.4,979.3L864.4,979.3z"
							/>
					</g>
					<g>
						<path class="st2" d="M864.4,1022.5v-28.7l0,0c-1.2,0-2.3-0.4-3.2-0.9v30.4C862.2,1022.8,863.2,1022.5,864.4,1022.5
							L864.4,1022.5z"/>
					</g>
					<g>
						<path class="st2" d="M864.4,1037L864.4,1037c-1.2,0-2.3-0.4-3.2-0.9v9.5c0,2.3-1.9,4.3-4.3,4.3H735.4c0.5,1,0.9,2.1,0.9,3.2
							l0,0h121.3c3.8,0,6.8-3,6.8-6.8V1037L864.4,1037z"/>
					</g>
					<g>
						<path class="st2" d="M649,1049.8c0.5,1,0.9,2.1,0.9,3.2l0,0h28.7l0,0c0-1.2,0.4-2.3,0.9-3.2H649z"/>
					</g>
					<g>
						<path class="st2" d="M692.2,1049.8c0.5,1,0.9,2.1,0.9,3.2l0,0h28.7l0,0c0-1.2,0.4-2.3,0.9-3.2H692.2z"/>
					</g>
					<g>
						<g>
							<path class="st2" d="M862.4,187.7l-2.5,2.5c0.8,0.8,1.2,1.8,1.2,3v9.3c1-0.5,2.1-0.9,3.2-0.9l0,0v-9.2
								C864.4,190.6,863.7,188.9,862.4,187.7z"/>
						</g>
					</g>
				</g>
				<g>
					<path class="st2" d="M636.2,1049.8H514.7c-1.2,0-2.2-0.5-3-1.2l-2.5,2.5c1.2,1.2,2.9,2,4.8,2h121.3l0,0
						C635.4,1051.9,635.7,1050.8,636.2,1049.8z"/>
				</g>
			</g>
			<g>
				<g>
					<path class="st3" d="M510.5,193.2v9.4c2.4,1.2,4,3.6,4,6.4s-1.7,5.2-4,6.4v30.4c2.4,1.2,4,3.6,4,6.4s-1.7,5.2-4,6.4V289
						c2.4,1.2,4,3.6,4,6.4s-1.7,5.2-4,6.4v30.4c2.4,1.2,4,3.6,4,6.4s-1.7,5.2-4,6.4v30.4c2.4,1.2,4,3.6,4,6.4s-1.7,5.2-4,6.4v30.4
						c2.4,1.2,4,3.6,4,6.4s-1.7,5.2-4,6.4v30.4c2.4,1.2,4,3.6,4,6.4s-1.7,5.2-4,6.4V505c2.4,1.2,4,3.6,4,6.4c0,2.8-1.7,5.2-4,6.4
						v30.4c2.4,1.2,4,3.6,4,6.4s-1.7,5.2-4,6.4v30.4c2.4,1.2,4,3.6,4,6.4s-1.7,5.2-4,6.4v30.4c2.4,1.2,4,3.6,4,6.4s-1.7,5.2-4,6.4
						v30.4c2.4,1.2,4,3.6,4,6.4s-1.7,5.2-4,6.4V721c2.4,1.2,4,3.6,4,6.4s-1.7,5.2-4,6.4v30.4c2.4,1.2,4,3.6,4,6.4s-1.7,5.2-4,6.4
						v30.4c2.4,1.2,4,3.6,4,6.4s-1.7,5.2-4,6.4v30.4c2.4,1.2,4,3.6,4,6.4s-1.7,5.2-4,6.4v30.4c2.4,1.2,4,3.6,4,6.4s-1.7,5.2-4,6.4
						V937c2.4,1.2,4,3.6,4,6.4s-1.7,5.2-4,6.4v30.4c2.4,1.2,4,3.6,4,6.4s-1.7,5.2-4,6.4v30.4c2.4,1.2,4,3.6,4,6.4s-1.7,5.2-4,6.4
						v9.5c0,2.3,1.9,4.3,4.3,4.3h121.5c1.2-2.4,3.6-4,6.4-4s5.2,1.7,6.4,4h30.4c1.2-2.4,3.6-4,6.4-4s5.2,1.7,6.4,4h30.4
						c1.2-2.4,3.6-4,6.4-4s5.2,1.7,6.4,4h121.4c2.3,0,4.3-1.9,4.3-4.3v-9.5c-2.4-1.2-4-3.6-4-6.4s1.7-5.2,4-6.4V993
						c-2.4-1.2-4-3.6-4-6.4s1.7-5.2,4-6.4v-30.4c-2.4-1.2-4-3.6-4-6.4s1.7-5.2,4-6.4v-30.4c-2.4-1.2-4-3.6-4-6.4s1.7-5.2,4-6.4
						v-30.4c-2.4-1.2-4-3.6-4-6.4s1.7-5.2,4-6.4v-30.4c-2.4-1.2-4-3.6-4-6.4s1.7-5.2,4-6.4V777c-2.4-1.2-4-3.6-4-6.4s1.7-5.2,4-6.4
						v-30.4c-2.4-1.2-4-3.6-4-6.4s1.7-5.2,4-6.4v-30.4c-2.4-1.2-4-3.6-4-6.4s1.7-5.2,4-6.4v-30.4c-2.4-1.2-4-3.6-4-6.4
						s1.7-5.2,4-6.4v-30.4c-2.4-1.2-4-3.6-4-6.4s1.7-5.2,4-6.4V561c-2.4-1.2-4-3.6-4-6.4s1.7-5.2,4-6.4v-30.4c-2.4-1.2-4-3.6-4-6.4
						c0-2.8,1.7-5.2,4-6.4v-30.4c-2.4-1.2-4-3.6-4-6.4s1.7-5.2,4-6.4v-30.4c-2.4-1.2-4-3.6-4-6.4s1.7-5.2,4-6.4v-30.4
						c-2.4-1.2-4-3.6-4-6.4s1.7-5.2,4-6.4V345c-2.4-1.2-4-3.6-4-6.4s1.7-5.2,4-6.4v-30.4c-2.4-1.2-4-3.6-4-6.4s1.7-5.2,4-6.4v-30.4
						c-2.4-1.2-4-3.6-4-6.4s1.7-5.2,4-6.4v-30.4c-2.4-1.2-4-3.6-4-6.4s1.7-5.2,4-6.4v-9.4c0-2.3-1.9-4.3-4.3-4.3H514.7
						C512.4,188.9,510.5,190.8,510.5,193.2z M534.6,1036.9c-4,0-7.2-3.2-7.2-7.2s3.2-7.2,7.2-7.2s7.2,3.2,7.2,7.2
						S538.6,1036.9,534.6,1036.9z M541.8,986.5c0,4-3.2,7.2-7.2,7.2s-7.2-3.2-7.2-7.2s3.2-7.2,7.2-7.2
						C538.6,979.4,541.8,982.6,541.8,986.5z M541.8,943.3c0,4-3.2,7.2-7.2,7.2s-7.2-3.2-7.2-7.2s3.2-7.2,7.2-7.2
						C538.6,936.2,541.8,939.4,541.8,943.3z M541.8,900.1c0,4-3.2,7.2-7.2,7.2s-7.2-3.2-7.2-7.2s3.2-7.2,7.2-7.2
						C538.6,893,541.8,896.2,541.8,900.1z M541.8,856.9c0,4-3.2,7.2-7.2,7.2s-7.2-3.2-7.2-7.2s3.2-7.2,7.2-7.2
						C538.6,849.8,541.8,853,541.8,856.9z M541.8,813.7c0,4-3.2,7.2-7.2,7.2s-7.2-3.2-7.2-7.2s3.2-7.2,7.2-7.2
						C538.6,806.6,541.8,809.8,541.8,813.7z M541.8,770.5c0,4-3.2,7.2-7.2,7.2s-7.2-3.2-7.2-7.2s3.2-7.2,7.2-7.2
						C538.6,763.4,541.8,766.6,541.8,770.5z M541.8,727.3c0,4-3.2,7.2-7.2,7.2s-7.2-3.2-7.2-7.2s3.2-7.2,7.2-7.2
						C538.6,720.2,541.8,723.4,541.8,727.3z M541.8,684.1c0,4-3.2,7.2-7.2,7.2s-7.2-3.2-7.2-7.2s3.2-7.2,7.2-7.2
						C538.6,677,541.8,680.2,541.8,684.1z M541.8,640.9c0,4-3.2,7.2-7.2,7.2s-7.2-3.2-7.2-7.2s3.2-7.2,7.2-7.2
						C538.6,633.8,541.8,637,541.8,640.9z M541.8,597.7c0,4-3.2,7.2-7.2,7.2s-7.2-3.2-7.2-7.2s3.2-7.2,7.2-7.2
						C538.6,590.6,541.8,593.8,541.8,597.7z M541.8,554.5c0,4-3.2,7.2-7.2,7.2s-7.2-3.2-7.2-7.2s3.2-7.2,7.2-7.2
						C538.6,547.4,541.8,550.6,541.8,554.5z M541.8,511.3c0,4-3.2,7.2-7.2,7.2s-7.2-3.2-7.2-7.2s3.2-7.2,7.2-7.2
						C538.6,504.2,541.8,507.4,541.8,511.3z M541.8,468.1c0,4-3.2,7.2-7.2,7.2s-7.2-3.2-7.2-7.2s3.2-7.2,7.2-7.2
						C538.6,461,541.8,464.2,541.8,468.1z M541.8,424.9c0,4-3.2,7.2-7.2,7.2s-7.2-3.2-7.2-7.2s3.2-7.2,7.2-7.2
						C538.6,417.8,541.8,421,541.8,424.9z M541.8,381.7c0,4-3.2,7.2-7.2,7.2s-7.2-3.2-7.2-7.2s3.2-7.2,7.2-7.2
						C538.6,374.6,541.8,377.8,541.8,381.7z M541.8,338.5c0,4-3.2,7.2-7.2,7.2s-7.2-3.2-7.2-7.2s3.2-7.2,7.2-7.2
						C538.6,331.4,541.8,334.6,541.8,338.5z M541.8,295.3c0,4-3.2,7.2-7.2,7.2s-7.2-3.2-7.2-7.2s3.2-7.2,7.2-7.2
						C538.6,288.2,541.8,291.4,541.8,295.3z M541.8,252.1c0,4-3.2,7.2-7.2,7.2s-7.2-3.2-7.2-7.2c0-4,3.2-7.2,7.2-7.2
						C538.6,245,541.8,248.2,541.8,252.1z M541.8,208.9c0,4-3.2,7.2-7.2,7.2s-7.2-3.2-7.2-7.2s3.2-7.2,7.2-7.2
						C538.6,201.8,541.8,205,541.8,208.9z M589,1033.4c-8.3,0-15.1-6.8-15.1-15.1s6.8-15.1,15.1-15.1s15.1,6.8,15.1,15.1
						C604.1,1026.6,597.3,1033.4,589,1033.4z M589,235.7c-8.3,0-15.1-6.8-15.1-15.1s6.8-15.1,15.1-15.1s15.1,6.8,15.1,15.1
						S597.3,235.7,589,235.7z M642.6,1036.9c-4,0-7.2-3.2-7.2-7.2s3.2-7.2,7.2-7.2s7.2,3.2,7.2,7.2S646.6,1036.9,642.6,1036.9z
						 M685.8,1036.9c-4,0-7.2-3.2-7.2-7.2s3.2-7.2,7.2-7.2s7.2,3.2,7.2,7.2C693,1033.7,689.8,1036.9,685.8,1036.9z M829.9,1029.7
						c0-4,3.2-7.2,7.2-7.2s7.2,3.2,7.2,7.2s-3.2,7.2-7.2,7.2S829.9,1033.7,829.9,1029.7z M829.9,986.5c0-4,3.2-7.2,7.2-7.2
						s7.2,3.2,7.2,7.2s-3.2,7.2-7.2,7.2S829.9,990.5,829.9,986.5z M829.9,943.3c0-4,3.2-7.2,7.2-7.2s7.2,3.2,7.2,7.2
						s-3.2,7.2-7.2,7.2S829.9,947.3,829.9,943.3z M829.9,900.1c0-4,3.2-7.2,7.2-7.2s7.2,3.2,7.2,7.2s-3.2,7.2-7.2,7.2
						S829.9,904.1,829.9,900.1z M829.9,856.9c0-4,3.2-7.2,7.2-7.2s7.2,3.2,7.2,7.2s-3.2,7.2-7.2,7.2S829.9,860.9,829.9,856.9z
						 M829.9,813.7c0-4,3.2-7.2,7.2-7.2s7.2,3.2,7.2,7.2s-3.2,7.2-7.2,7.2S829.9,817.7,829.9,813.7z M829.9,770.5
						c0-4,3.2-7.2,7.2-7.2s7.2,3.2,7.2,7.2s-3.2,7.2-7.2,7.2S829.9,774.5,829.9,770.5z M829.9,727.3c0-4,3.2-7.2,7.2-7.2
						s7.2,3.2,7.2,7.2s-3.2,7.2-7.2,7.2S829.9,731.3,829.9,727.3z M829.9,684.1c0-4,3.2-7.2,7.2-7.2s7.2,3.2,7.2,7.2
						s-3.2,7.2-7.2,7.2S829.9,688.1,829.9,684.1z M829.9,640.9c0-4,3.2-7.2,7.2-7.2s7.2,3.2,7.2,7.2s-3.2,7.2-7.2,7.2
						S829.9,644.9,829.9,640.9z M829.9,597.7c0-4,3.2-7.2,7.2-7.2s7.2,3.2,7.2,7.2s-3.2,7.2-7.2,7.2S829.9,601.7,829.9,597.7z
						 M829.9,554.5c0-4,3.2-7.2,7.2-7.2s7.2,3.2,7.2,7.2s-3.2,7.2-7.2,7.2S829.9,558.5,829.9,554.5z M829.9,511.3
						c0-4,3.2-7.2,7.2-7.2s7.2,3.2,7.2,7.2s-3.2,7.2-7.2,7.2S829.9,515.3,829.9,511.3z M829.9,468.1c0-4,3.2-7.2,7.2-7.2
						s7.2,3.2,7.2,7.2s-3.2,7.2-7.2,7.2S829.9,472.1,829.9,468.1z M829.9,424.9c0-4,3.2-7.2,7.2-7.2s7.2,3.2,7.2,7.2
						s-3.2,7.2-7.2,7.2S829.9,428.9,829.9,424.9z M829.9,381.7c0-4,3.2-7.2,7.2-7.2s7.2,3.2,7.2,7.2s-3.2,7.2-7.2,7.2
						S829.9,385.7,829.9,381.7z M829.9,338.5c0-4,3.2-7.2,7.2-7.2s7.2,3.2,7.2,7.2s-3.2,7.2-7.2,7.2S829.9,342.5,829.9,338.5z
						 M829.9,295.3c0-4,3.2-7.2,7.2-7.2s7.2,3.2,7.2,7.2s-3.2,7.2-7.2,7.2S829.9,299.3,829.9,295.3z M829.9,252.1
						c0-4,3.2-7.2,7.2-7.2s7.2,3.2,7.2,7.2s-3.2,7.2-7.2,7.2C833.1,259.3,829.9,256.1,829.9,252.1z M829.9,208.9
						c0-4,3.2-7.2,7.2-7.2s7.2,3.2,7.2,7.2s-3.2,7.2-7.2,7.2S829.9,212.9,829.9,208.9z M729,1036.9c-4,0-7.2-3.2-7.2-7.2
						s3.2-7.2,7.2-7.2s7.2,3.2,7.2,7.2S733,1036.9,729,1036.9z M782.7,1033.4c-8.3,0-15.1-6.8-15.1-15.1s6.8-15.1,15.1-15.1
						s15.1,6.8,15.1,15.1C797.8,1026.6,791,1033.4,782.7,1033.4z M782.7,235.7c-8.3,0-15.1-6.8-15.1-15.1s6.8-15.1,15.1-15.1
						s15.1,6.8,15.1,15.1S791,235.7,782.7,235.7z"/>
				</g>
			</g>
			<g>
				<g>
					<g>
						<path class="st4" d="M857.6,185.7H514c-3.8,0-6.8,3-6.8,6.8v9.2l0,0c1.2,0,2.3,0.4,3.2,0.9v-9.4c0-2.3,1.9-4.3,4.3-4.3h342.2
							c1.2,0,2.2,0.5,3,1.2l2.5-2.5C861.2,186.4,859.5,185.7,857.6,185.7z"/>
					</g>
					<g>
						<path class="st4" d="M507.3,259.4v28.7l0,0c1.2,0,2.3,0.4,3.2,0.9v-30.4C509.5,259,508.4,259.4,507.3,259.4L507.3,259.4z"/>
					</g>
					<g>
						<path class="st4" d="M507.3,302.6v28.7l0,0c1.2,0,2.3,0.4,3.2,0.9v-30.4C509.5,302.2,508.4,302.6,507.3,302.6L507.3,302.6z"/>
					</g>
					<g>
						<path class="st4" d="M507.3,345.8v28.7l0,0c1.2,0,2.3,0.4,3.2,0.9V345C509.5,345.4,508.4,345.8,507.3,345.8L507.3,345.8z"/>
					</g>
					<g>
						<path class="st4" d="M507.3,389v28.7l0,0c1.2,0,2.3,0.4,3.2,0.9v-30.4C509.5,388.6,508.4,389,507.3,389L507.3,389z"/>
					</g>
					<g>
						<path class="st4" d="M507.3,432.2v28.7l0,0c1.2,0,2.3,0.4,3.2,0.9v-30.4C509.5,431.8,508.4,432.2,507.3,432.2L507.3,432.2z"/>
					</g>
					<g>
						<path class="st4" d="M507.3,475.4v28.7l0,0c1.2,0,2.3,0.4,3.2,0.9v-30.4C509.5,475,508.4,475.4,507.3,475.4L507.3,475.4z"/>
					</g>
					<g>
						<path class="st4" d="M507.3,518.6v28.7l0,0c1.2,0,2.3,0.4,3.2,0.9v-30.4C509.5,518.2,508.4,518.6,507.3,518.6L507.3,518.6z"/>
					</g>
					<g>
						<path class="st4" d="M507.3,561.8v28.7l0,0c1.2,0,2.3,0.4,3.2,0.9V561C509.5,561.4,508.4,561.8,507.3,561.8L507.3,561.8z"/>
					</g>
					<g>
						<path class="st4" d="M507.3,605v28.7l0,0c1.2,0,2.3,0.4,3.2,0.9v-30.4C509.5,604.6,508.4,605,507.3,605L507.3,605z"/>
					</g>
					<g>
						<path class="st4" d="M507.3,648.2v28.7l0,0c1.2,0,2.3,0.4,3.2,0.9v-30.4C509.5,647.8,508.4,648.2,507.3,648.2L507.3,648.2z"/>
					</g>
					<g>
						<path class="st4" d="M507.3,691.4v28.7l0,0c1.2,0,2.3,0.4,3.2,0.9v-30.4C509.5,691,508.4,691.4,507.3,691.4L507.3,691.4z"/>
					</g>
					<g>
						<path class="st4" d="M507.3,734.6v28.7l0,0c1.2,0,2.3,0.4,3.2,0.9v-30.4C509.5,734.2,508.4,734.6,507.3,734.6L507.3,734.6z"/>
					</g>
					<g>
						<path class="st4" d="M507.3,777.8v28.7l0,0c1.2,0,2.3,0.4,3.2,0.9V777C509.5,777.4,508.4,777.8,507.3,777.8L507.3,777.8z"/>
					</g>
					<g>
						<path class="st4" d="M507.3,821v28.7l0,0c1.2,0,2.3,0.4,3.2,0.9v-30.4C509.5,820.6,508.4,821,507.3,821L507.3,821z"/>
					</g>
					<g>
						<path class="st4" d="M507.3,864.2v28.7l0,0c1.2,0,2.3,0.4,3.2,0.9v-30.4C509.5,863.8,508.4,864.2,507.3,864.2L507.3,864.2z"/>
					</g>
					<g>
						<path class="st4" d="M507.3,907.4v28.7l0,0c1.2,0,2.3,0.4,3.2,0.9v-30.4C509.5,907,508.4,907.4,507.3,907.4L507.3,907.4z"/>
					</g>
					<g>
						<path class="st4" d="M507.3,950.6v28.7l0,0c1.2,0,2.3,0.4,3.2,0.9v-30.4C509.5,950.2,508.4,950.6,507.3,950.6L507.3,950.6z"/>
					</g>
					<g>
						<path class="st4" d="M507.3,993.8v28.7l0,0c1.2,0,2.3,0.4,3.2,0.9V993C509.5,993.4,508.4,993.8,507.3,993.8L507.3,993.8z"/>
					</g>
					<g>
						<path class="st4" d="M507.3,216.2v28.7l0,0c1.2,0,2.3,0.4,3.2,0.9v-30.4C509.5,215.8,508.4,216.2,507.3,216.2L507.3,216.2z"/>
					</g>
				</g>
				<g>
					<g>
						<path class="st4" d="M509.3,1051.1l2.5-2.5c-0.8-0.8-1.2-1.8-1.2-3v-9.5c-1,0.5-2.1,0.9-3.2,0.9v9.3
							C507.3,1048.2,508,1049.9,509.3,1051.1z"/>
					</g>
				</g>
			</g>
		</g>
		<g id="Copper_1_">
			<g>
				<g>
					<path class="st5" d="M546.5,252.1c0-6.5-5.3-11.9-11.8-11.9h-27.4v4.6l0,0c4,0,7.3,3.3,7.3,7.3c0,4-3.3,7.3-7.3,7.3l0,0v4.6
						h27.4C541.2,264,546.5,258.7,546.5,252.1z M534.6,259.3c-4,0-7.2-3.2-7.2-7.2c0-4,3.2-7.2,7.2-7.2s7.2,3.2,7.2,7.2
						C541.8,256.1,538.6,259.3,534.6,259.3z"/>
				</g>
				<g>
					<path class="st5" d="M546.5,283.5h-39.2v4.6l0,0c4,0,7.3,3.3,7.3,7.3s-3.3,7.3-7.3,7.3l0,0v4.6h39.2V283.5z M534.6,302.5
						c-4,0-7.2-3.2-7.2-7.2s3.2-7.2,7.2-7.2s7.2,3.2,7.2,7.2S538.6,302.5,534.6,302.5z"/>
				</g>
				<g>
					<path class="st5" d="M546.5,338.5c0-6.5-5.3-11.9-11.8-11.9h-27.4v4.6l0,0c4,0,7.3,3.3,7.3,7.3s-3.3,7.3-7.3,7.3l0,0v4.6h27.4
						C541.2,350.4,546.5,345.1,546.5,338.5z M534.6,345.7c-4,0-7.2-3.2-7.2-7.2s3.2-7.2,7.2-7.2s7.2,3.2,7.2,7.2
						S538.6,345.7,534.6,345.7z"/>
				</g>
				<g>
					<path class="st5" d="M546.5,381.7c0-6.5-5.3-11.9-11.8-11.9h-27.4v4.6l0,0c4,0,7.3,3.3,7.3,7.3s-3.3,7.3-7.3,7.3l0,0v4.6h27.4
						C541.2,393.6,546.5,388.3,546.5,381.7z M534.6,388.9c-4,0-7.2-3.2-7.2-7.2s3.2-7.2,7.2-7.2s7.2,3.2,7.2,7.2
						C541.8,385.7,538.6,388.9,534.6,388.9z"/>
				</g>
				<g>
					<path class="st5" d="M546.5,424.9c0-6.5-5.3-11.9-11.8-11.9h-27.4v4.6l0,0c4,0,7.3,3.3,7.3,7.3s-3.3,7.3-7.3,7.3l0,0v4.6h27.4
						C541.2,436.8,546.5,431.5,546.5,424.9z M534.6,432.1c-4,0-7.2-3.2-7.2-7.2s3.2-7.2,7.2-7.2s7.2,3.2,7.2,7.2
						S538.6,432.1,534.6,432.1z"/>
				</g>
				<g>
					<path class="st5" d="M546.5,468.1c0-6.5-5.3-11.9-11.8-11.9h-27.4v4.6l0,0c4,0,7.3,3.3,7.3,7.3s-3.3,7.3-7.3,7.3l0,0v4.6h27.4
						C541.2,480,546.5,474.7,546.5,468.1z M534.6,475.3c-4,0-7.2-3.2-7.2-7.2s3.2-7.2,7.2-7.2s7.2,3.2,7.2,7.2
						S538.6,475.3,534.6,475.3z"/>
				</g>
				<g>
					<path class="st5" d="M546.5,499.5h-39.2v4.6l0,0c4,0,7.3,3.3,7.3,7.3c0,4-3.3,7.3-7.3,7.3l0,0v4.6h39.2V499.5z M534.6,518.5
						c-4,0-7.2-3.2-7.2-7.2s3.2-7.2,7.2-7.2s7.2,3.2,7.2,7.2S538.6,518.5,534.6,518.5z"/>
				</g>
				<g>
					<path class="st5" d="M546.5,554.5c0-6.5-5.3-11.9-11.8-11.9h-27.4v4.6l0,0c4,0,7.3,3.3,7.3,7.3s-3.3,7.3-7.3,7.3l0,0v4.6h27.4
						C541.2,566.4,546.5,561.1,546.5,554.5z M534.6,561.7c-4,0-7.2-3.2-7.2-7.2s3.2-7.2,7.2-7.2s7.2,3.2,7.2,7.2
						S538.6,561.7,534.6,561.7z"/>
				</g>
				<g>
					<path class="st5" d="M546.5,597.7c0-6.5-5.3-11.9-11.8-11.9h-27.4v4.6l0,0c4,0,7.3,3.3,7.3,7.3s-3.3,7.3-7.3,7.3l0,0v4.6h27.4
						C541.2,609.6,546.5,604.3,546.5,597.7z M534.6,604.9c-4,0-7.2-3.2-7.2-7.2s3.2-7.2,7.2-7.2s7.2,3.2,7.2,7.2
						S538.6,604.9,534.6,604.9z"/>
				</g>
				<g>
					<path class="st5" d="M546.5,640.9c0-6.5-5.3-11.9-11.8-11.9h-27.4v4.6l0,0c4,0,7.3,3.3,7.3,7.3s-3.3,7.3-7.3,7.3l0,0v4.6h27.4
						C541.2,652.8,546.5,647.5,546.5,640.9z M534.6,648.1c-4,0-7.2-3.2-7.2-7.2s3.2-7.2,7.2-7.2s7.2,3.2,7.2,7.2
						C541.8,644.9,538.6,648.1,534.6,648.1z"/>
				</g>
				<g>
					<path class="st5" d="M546.5,684.1c0-6.5-5.3-11.9-11.8-11.9h-27.4v4.6l0,0c4,0,7.3,3.3,7.3,7.3s-3.3,7.3-7.3,7.3l0,0v4.6h27.4
						C541.2,696,546.5,690.7,546.5,684.1z M534.6,691.3c-4,0-7.2-3.2-7.2-7.2s3.2-7.2,7.2-7.2s7.2,3.2,7.2,7.2
						S538.6,691.3,534.6,691.3z"/>
				</g>
				<g>
					<path class="st5" d="M546.5,715.5h-39.2v4.6l0,0c4,0,7.3,3.3,7.3,7.3s-3.3,7.3-7.3,7.3l0,0v4.6h39.2V715.5z M534.6,734.5
						c-4,0-7.2-3.2-7.2-7.2s3.2-7.2,7.2-7.2s7.2,3.2,7.2,7.2S538.6,734.5,534.6,734.5z"/>
				</g>
				<g>
					<path class="st5" d="M546.5,770.5c0-6.5-5.3-11.9-11.8-11.9h-27.4v4.6l0,0c4,0,7.3,3.3,7.3,7.3s-3.3,7.3-7.3,7.3l0,0v4.6h27.4
						C541.2,782.4,546.5,777.1,546.5,770.5z M534.6,777.7c-4,0-7.2-3.2-7.2-7.2s3.2-7.2,7.2-7.2s7.2,3.2,7.2,7.2
						S538.6,777.7,534.6,777.7z"/>
				</g>
				<g>
					<path class="st5" d="M546.5,813.7c0-6.5-5.3-11.9-11.8-11.9h-27.4v4.6l0,0c4,0,7.3,3.3,7.3,7.3s-3.3,7.3-7.3,7.3l0,0v4.6h27.4
						C541.2,825.6,546.5,820.3,546.5,813.7z M534.6,820.9c-4,0-7.2-3.2-7.2-7.2s3.2-7.2,7.2-7.2s7.2,3.2,7.2,7.2
						S538.6,820.9,534.6,820.9z"/>
				</g>
				<g>
					<path class="st5" d="M546.5,856.9c0-6.5-5.3-11.9-11.8-11.9h-27.4v4.6l0,0c4,0,7.3,3.3,7.3,7.3s-3.3,7.3-7.3,7.3l0,0v4.6h27.4
						C541.2,868.8,546.5,863.5,546.5,856.9z M534.6,864.1c-4,0-7.2-3.2-7.2-7.2s3.2-7.2,7.2-7.2s7.2,3.2,7.2,7.2
						C541.8,860.9,538.6,864.1,534.6,864.1z"/>
				</g>
				<g>
					<path class="st5" d="M546.5,900.1c0-6.5-5.3-11.9-11.8-11.9h-27.4v4.6l0,0c4,0,7.3,3.3,7.3,7.3s-3.3,7.3-7.3,7.3l0,0v4.6h27.4
						C541.2,912,546.5,906.7,546.5,900.1z M534.6,907.3c-4,0-7.2-3.2-7.2-7.2s3.2-7.2,7.2-7.2s7.2,3.2,7.2,7.2
						S538.6,907.3,534.6,907.3z"/>
				</g>
				<g>
					<path class="st5" d="M546.5,931.5h-39.2v4.6l0,0c4,0,7.3,3.3,7.3,7.3s-3.3,7.3-7.3,7.3l0,0v4.6h39.2V931.5z M534.6,950.5
						c-4,0-7.2-3.2-7.2-7.2s3.2-7.2,7.2-7.2s7.2,3.2,7.2,7.2S538.6,950.5,534.6,950.5z"/>
				</g>
				<g>
					<path class="st5" d="M546.5,986.5c0-6.5-5.3-11.9-11.8-11.9h-27.4v4.6l0,0c4,0,7.3,3.3,7.3,7.3s-3.3,7.3-7.3,7.3l0,0v4.6h27.4
						C541.2,998.4,546.5,993.1,546.5,986.5z M534.6,993.7c-4,0-7.2-3.2-7.2-7.2s3.2-7.2,7.2-7.2s7.2,3.2,7.2,7.2
						S538.6,993.7,534.6,993.7z"/>
				</g>
				<g>
					<path class="st5" d="M546.5,1029.7c0-6.5-5.3-11.9-11.8-11.9h-27.4v4.6l0,0c4,0,7.3,3.3,7.3,7.3s-3.3,7.3-7.3,7.3l0,0v4.6h27.4
						C541.2,1041.6,546.5,1036.3,546.5,1029.7z M534.6,1036.9c-4,0-7.2-3.2-7.2-7.2s3.2-7.2,7.2-7.2s7.2,3.2,7.2,7.2
						S538.6,1036.9,534.6,1036.9z"/>
				</g>
			</g>
			<g>
				<g>
					<path class="st5" d="M837,264h27.4v-4.6l0,0c-4,0-7.3-3.3-7.3-7.3c0-4,3.3-7.3,7.3-7.3l0,0v-4.6H837c-6.5,0-11.8,5.3-11.8,11.9
						C825.2,258.7,830.5,264,837,264z M829.9,252.1c0-4,3.2-7.2,7.2-7.2s7.2,3.2,7.2,7.2s-3.2,7.2-7.2,7.2
						C833.1,259.3,829.9,256.1,829.9,252.1z"/>
				</g>
				<g>
					<path class="st5" d="M825.2,307.2h39.2v-4.6l0,0c-4,0-7.3-3.3-7.3-7.3s3.3-7.3,7.3-7.3l0,0v-4.6h-39.2V307.2z M829.9,295.3
						c0-4,3.2-7.2,7.2-7.2s7.2,3.2,7.2,7.2s-3.2,7.2-7.2,7.2S829.9,299.3,829.9,295.3z"/>
				</g>
				<g>
					<path class="st5" d="M837,350.4h27.4v-4.6l0,0c-4,0-7.3-3.3-7.3-7.3s3.3-7.3,7.3-7.3l0,0v-4.6H837c-6.5,0-11.8,5.3-11.8,11.9
						S830.5,350.4,837,350.4z M829.9,338.5c0-4,3.2-7.2,7.2-7.2s7.2,3.2,7.2,7.2s-3.2,7.2-7.2,7.2S829.9,342.5,829.9,338.5z"/>
				</g>
				<g>
					<path class="st5" d="M837,393.6h27.4V389l0,0c-4,0-7.3-3.3-7.3-7.3s3.3-7.3,7.3-7.3l0,0v-4.6H837c-6.5,0-11.8,5.3-11.8,11.9
						S830.5,393.6,837,393.6z M829.9,381.7c0-4,3.2-7.2,7.2-7.2s7.2,3.2,7.2,7.2s-3.2,7.2-7.2,7.2S829.9,385.7,829.9,381.7z"/>
				</g>
				<g>
					<path class="st5" d="M837,436.8h27.4v-4.6l0,0c-4,0-7.3-3.3-7.3-7.3s3.3-7.3,7.3-7.3l0,0V413H837c-6.5,0-11.8,5.3-11.8,11.9
						S830.5,436.8,837,436.8z M829.9,424.9c0-4,3.2-7.2,7.2-7.2s7.2,3.2,7.2,7.2s-3.2,7.2-7.2,7.2S829.9,428.9,829.9,424.9z"/>
				</g>
				<g>
					<path class="st5" d="M837,480h27.4v-4.6l0,0c-4,0-7.3-3.3-7.3-7.3s3.3-7.3,7.3-7.3l0,0v-4.6H837c-6.5,0-11.8,5.3-11.8,11.9
						S830.5,480,837,480z M829.9,468.1c0-4,3.2-7.2,7.2-7.2s7.2,3.2,7.2,7.2s-3.2,7.2-7.2,7.2S829.9,472.1,829.9,468.1z"/>
				</g>
				<g>
					<path class="st5" d="M825.2,523.2h39.2v-4.6l0,0c-4,0-7.3-3.3-7.3-7.3s3.3-7.3,7.3-7.3l0,0v-4.6h-39.2V523.2z M829.9,511.3
						c0-4,3.2-7.2,7.2-7.2s7.2,3.2,7.2,7.2s-3.2,7.2-7.2,7.2S829.9,515.3,829.9,511.3z"/>
				</g>
				<g>
					<path class="st5" d="M837,566.4h27.4v-4.6l0,0c-4,0-7.3-3.3-7.3-7.3s3.3-7.3,7.3-7.3l0,0v-4.6H837c-6.5,0-11.8,5.3-11.8,11.9
						S830.5,566.4,837,566.4z M829.9,554.5c0-4,3.2-7.2,7.2-7.2s7.2,3.2,7.2,7.2s-3.2,7.2-7.2,7.2S829.9,558.5,829.9,554.5z"/>
				</g>
				<g>
					<path class="st5" d="M837,609.6h27.4V605l0,0c-4,0-7.3-3.3-7.3-7.3s3.3-7.3,7.3-7.3l0,0v-4.6H837c-6.5,0-11.8,5.3-11.8,11.9
						S830.5,609.6,837,609.6z M829.9,597.7c0-4,3.2-7.2,7.2-7.2s7.2,3.2,7.2,7.2s-3.2,7.2-7.2,7.2S829.9,601.7,829.9,597.7z"/>
				</g>
				<g>
					<path class="st5" d="M837,652.8h27.4v-4.6l0,0c-4,0-7.3-3.3-7.3-7.3s3.3-7.3,7.3-7.3l0,0V629H837c-6.5,0-11.8,5.3-11.8,11.9
						S830.5,652.8,837,652.8z M829.9,640.9c0-4,3.2-7.2,7.2-7.2s7.2,3.2,7.2,7.2s-3.2,7.2-7.2,7.2S829.9,644.9,829.9,640.9z"/>
				</g>
				<g>
					<path class="st5" d="M837,696h27.4v-4.6l0,0c-4,0-7.3-3.3-7.3-7.3s3.3-7.3,7.3-7.3l0,0v-4.6H837c-6.5,0-11.8,5.3-11.8,11.9
						S830.5,696,837,696z M829.9,684.1c0-4,3.2-7.2,7.2-7.2s7.2,3.2,7.2,7.2s-3.2,7.2-7.2,7.2S829.9,688.1,829.9,684.1z"/>
				</g>
				<g>
					<path class="st5" d="M825.2,739.2h39.2v-4.6l0,0c-4,0-7.3-3.3-7.3-7.3s3.3-7.3,7.3-7.3l0,0v-4.6h-39.2V739.2z M829.9,727.3
						c0-4,3.2-7.2,7.2-7.2s7.2,3.2,7.2,7.2s-3.2,7.2-7.2,7.2S829.9,731.3,829.9,727.3z"/>
				</g>
				<g>
					<path class="st5" d="M837,782.4h27.4v-4.6l0,0c-4,0-7.3-3.3-7.3-7.3s3.3-7.3,7.3-7.3l0,0v-4.6H837c-6.5,0-11.8,5.3-11.8,11.9
						S830.5,782.4,837,782.4z M829.9,770.5c0-4,3.2-7.2,7.2-7.2s7.2,3.2,7.2,7.2s-3.2,7.2-7.2,7.2S829.9,774.5,829.9,770.5z"/>
				</g>
				<g>
					<path class="st5" d="M837,825.6h27.4V821l0,0c-4,0-7.3-3.3-7.3-7.3s3.3-7.3,7.3-7.3l0,0v-4.6H837c-6.5,0-11.8,5.3-11.8,11.9
						S830.5,825.6,837,825.6z M829.9,813.7c0-4,3.2-7.2,7.2-7.2s7.2,3.2,7.2,7.2s-3.2,7.2-7.2,7.2S829.9,817.7,829.9,813.7z"/>
				</g>
				<g>
					<path class="st5" d="M837,868.8h27.4v-4.6l0,0c-4,0-7.3-3.3-7.3-7.3s3.3-7.3,7.3-7.3l0,0V845H837c-6.5,0-11.8,5.3-11.8,11.9
						S830.5,868.8,837,868.8z M829.9,856.9c0-4,3.2-7.2,7.2-7.2s7.2,3.2,7.2,7.2s-3.2,7.2-7.2,7.2S829.9,860.9,829.9,856.9z"/>
				</g>
				<g>
					<path class="st5" d="M837,912h27.4v-4.6l0,0c-4,0-7.3-3.3-7.3-7.3s3.3-7.3,7.3-7.3l0,0v-4.6H837c-6.5,0-11.8,5.3-11.8,11.9
						S830.5,912,837,912z M829.9,900.1c0-4,3.2-7.2,7.2-7.2s7.2,3.2,7.2,7.2s-3.2,7.2-7.2,7.2S829.9,904.1,829.9,900.1z"/>
				</g>
				<g>
					<path class="st5" d="M825.2,955.2h39.2v-4.6l0,0c-4,0-7.3-3.3-7.3-7.3s3.3-7.3,7.3-7.3l0,0v-4.6h-39.2V955.2z M829.9,943.3
						c0-4,3.2-7.2,7.2-7.2s7.2,3.2,7.2,7.2s-3.2,7.2-7.2,7.2S829.9,947.3,829.9,943.3z"/>
				</g>
				<g>
					<path class="st5" d="M837,998.4h27.4v-4.6l0,0c-4,0-7.3-3.3-7.3-7.3s3.3-7.3,7.3-7.3l0,0v-4.6H837c-6.5,0-11.8,5.3-11.8,11.9
						S830.5,998.4,837,998.4z M829.9,986.5c0-4,3.2-7.2,7.2-7.2s7.2,3.2,7.2,7.2s-3.2,7.2-7.2,7.2S829.9,990.5,829.9,986.5z"/>
				</g>
				<g>
					<path class="st5" d="M837,1041.6h27.4v-4.6l0,0c-4,0-7.3-3.3-7.3-7.3s3.3-7.3,7.3-7.3l0,0v-4.6H837c-6.5,0-11.8,5.3-11.8,11.9
						S830.5,1041.6,837,1041.6z M829.9,1029.7c0-4,3.2-7.2,7.2-7.2s7.2,3.2,7.2,7.2s-3.2,7.2-7.2,7.2S829.9,1033.7,829.9,1029.7z"/>
				</g>
			</g>
			<g>
				<g>
					<path class="st5" d="M642.6,1017.9c-6.5,0-11.9,5.3-11.9,11.8v23.4h4.6l0,0c0-4,3.3-7.3,7.3-7.3s7.3,3.3,7.3,7.3l0,0h4.6v-23.4
						C654.5,1023.2,649.2,1017.9,642.6,1017.9z M649.8,1029.7c0,4-3.2,7.2-7.2,7.2s-7.2-3.2-7.2-7.2s3.2-7.2,7.2-7.2
						C646.6,1022.5,649.8,1025.8,649.8,1029.7z"/>
				</g>
				<g>
					<path class="st5" d="M674,1018.2v34.8h4.6l0,0c0-4,3.3-7.3,7.3-7.3s7.3,3.3,7.3,7.3l0,0h4.6v-34.8H674z M693,1029.7
						c0,4-3.2,7.2-7.2,7.2s-7.2-3.2-7.2-7.2s3.2-7.2,7.2-7.2S693,1025.8,693,1029.7z"/>
				</g>
				<g>
					<path class="st5" d="M729,1017.9c-6.5,0-11.9,5.3-11.9,11.8v23.4h4.6l0,0c0-4,3.3-7.3,7.3-7.3s7.3,3.3,7.3,7.3l0,0h4.6v-23.4
						C740.9,1023.2,735.6,1017.9,729,1017.9z M736.2,1029.7c0,4-3.2,7.2-7.2,7.2s-7.2-3.2-7.2-7.2s3.2-7.2,7.2-7.2
						S736.2,1025.8,736.2,1029.7z"/>
				</g>
			</g>
			<g>
				<path class="st5" d="M837,220.8h27.4v-4.6l0,0c-4,0-7.3-3.3-7.3-7.3s3.3-7.3,7.3-7.3l0,0V197H837c-6.5,0-11.8,5.3-11.8,11.9
					S830.5,220.8,837,220.8z M829.9,208.9c0-4,3.2-7.2,7.2-7.2s7.2,3.2,7.2,7.2s-3.2,7.2-7.2,7.2S829.9,212.9,829.9,208.9z"/>
			</g>
			<g>
				<path class="st5" d="M546.5,208.9c0-6.5-5.3-11.9-11.8-11.9h-27.4v4.6l0,0c4,0,7.3,3.3,7.3,7.3s-3.3,7.3-7.3,7.3l0,0v4.6h27.4
					C541.2,220.8,546.5,215.5,546.5,208.9z M534.6,216.1c-4,0-7.2-3.2-7.2-7.2s3.2-7.2,7.2-7.2s7.2,3.2,7.2,7.2
					S538.6,216.1,534.6,216.1z"/>
			</g>
		</g>
		<g id="Mounting_Holes_2_">
			<g>
				<g>
					<g>
						<path class="st6" d="M589,1045.4c-15,0-27.1-12.2-27.1-27.1s12.2-27.1,27.1-27.1s27.1,12.2,27.1,27.1
							C616.1,1033.2,603.9,1045.4,589,1045.4z M589,1003.1c-8.3,0-15.1,6.8-15.1,15.1c0,8.3,6.8,15.1,15.1,15.1s15.1-6.8,15.1-15.1
							S597.3,1003.1,589,1003.1z"/>
					</g>
				</g>
			</g>
			<g>
				<g>
					<g>
						<path class="st6" d="M782.7,1045.4c-15,0-27.1-12.2-27.1-27.1s12.2-27.1,27.1-27.1c15,0,27.1,12.2,27.1,27.1
							C809.8,1033.2,797.6,1045.4,782.7,1045.4z M782.7,1003.1c-8.3,0-15.1,6.8-15.1,15.1c0,8.3,6.8,15.1,15.1,15.1
							s15.1-6.8,15.1-15.1S791,1003.1,782.7,1003.1z"/>
					</g>
				</g>
			</g>
			<g>
				<g>
					<g>
						<path class="st6" d="M589,247.7c-15,0-27.1-12.2-27.1-27.1s12.2-27.1,27.1-27.1s27.1,12.2,27.1,27.1S603.9,247.7,589,247.7z
							 M589,205.4c-8.3,0-15.1,6.8-15.1,15.1s6.8,15.1,15.1,15.1s15.1-6.8,15.1-15.1S597.3,205.4,589,205.4z"/>
					</g>
				</g>
			</g>
			<g>
				<g>
					<g>
						<path class="st6" d="M782.7,247.7c-15,0-27.1-12.2-27.1-27.1s12.2-27.1,27.1-27.1c15,0,27.1,12.2,27.1,27.1
							S797.6,247.7,782.7,247.7z M782.7,205.4c-8.3,0-15.1,6.8-15.1,15.1s6.8,15.1,15.1,15.1s15.1-6.8,15.1-15.1
							S791,205.4,782.7,205.4z"/>
					</g>
				</g>
			</g>
		</g>
		<g id="Pico_2040_1_">
			<rect x="625.9" y="559.5" class="st7" width="119.8" height="119.8"/>
		</g>
		<g id="USB_1_">
			<g>
				<path class="st8" d="M742,253.7H629.7c-1.9,0-3.4-1.5-3.4-3.4v-83.6c0-1.9,1.5-3.4,3.4-3.4H742c1.9,0,3.4,1.5,3.4,3.4v83.6
					C745.4,252.2,743.8,253.7,742,253.7z"/>
			</g>
			<g>
				<g>
					<path class="st9" d="M634.8,151.7c-1.5,0-2.8,1-3.3,2.4l-1.9,6.2l-3.4,3.4v86.7c0,1.9,1.5,3.4,3.4,3.4h20.8
						c0.9,0,1.7-0.8,1.7-1.7v-5c0-1.2-0.7-2.4-1.8-3l-11.6-6.3c-1.1-0.6-1.8-1.7-1.8-3v-5h7.5v-5.7h11.7v5.7h6.9v11.8
						c0,1.9,1.5,3.4,3.4,3.4h5.5v-6.1h27.5v6.1h5.5c1.9,0,3.4-1.5,3.4-3.4v-11.8h6.9v-5.7h11.7v5.7h7.5v5c0,1.2-0.7,2.4-1.8,3
						l-11.6,6.3c-1.1,0.6-1.8,1.7-1.8,3v5c0,0.9,0.8,1.7,1.7,1.7h20.8c1.9,0,3.4-1.5,3.4-3.4v-86.6l-3.4-3.4l-1.9-6.2
						c-0.4-1.4-1.8-2.4-3.3-2.4L634.8,151.7L634.8,151.7z"/>
				</g>
			</g>
			<g>
				<path class="st9" d="M630,169c-1.5-2-3-4-4.4-6.3c-0.7-1.1-1.3-2.4-1.8-3.7s-0.8-2.6-1.1-3.9c-0.2-1.1,0.5-2.2,1.6-2.4
					c1-0.2,2,0.4,2.3,1.3l0,0c0.8,2.2,1.7,4,3.1,5.8s3.1,3.5,4.7,5.2l0,0c1.2,1.2,1.1,3.1,0,4.3c-1.2,1.2-3.1,1.1-4.3,0
					C630.2,169.2,630.1,169.1,630,169z"/>
			</g>
			<g>
				<path class="st9" d="M737.1,165c1.7-1.7,3.4-3.4,4.7-5.2c1.4-1.7,2.4-3.6,3.1-5.8l0,0c0.4-1.1,1.5-1.6,2.6-1.3
					c1,0.3,1.5,1.3,1.3,2.3c-0.3,1.3-0.6,2.6-1.1,3.9c-0.5,1.3-1.1,2.5-1.8,3.7c-1.4,2.3-2.9,4.3-4.4,6.3c-1,1.3-2.9,1.6-4.2,0.6
					s-1.6-2.9-0.6-4.2C736.9,165.2,737,165.2,737.1,165L737.1,165z"/>
			</g>
		</g>
		<g id="Components_Large">
			<g>
				<path class="st9" d="M667.9,787.5h-44.2c-1.9,0-3.4-1.5-3.4-3.4v-27.2c0-1.9,1.5-3.4,3.4-3.4h44.2c1.9,0,3.4,1.5,3.4,3.4v27.2
					C671.3,786,669.8,787.5,667.9,787.5z"/>
			</g>
			<g>
				<rect x="604.5" y="477.5" class="st10" width="34" height="51"/>
			</g>
			<g>
				<rect x="712.7" y="342.8" class="st10" width="42.5" height="42.5"/>
			</g>
			<g>
				<rect x="774" y="269.2" class="st10" width="25.5" height="42.5"/>
			</g>
			<g>
				<rect x="576.1" y="253.7" class="st11" width="25.5" height="17"/>
			</g>
			<g>
				<g>
					<path class="st12" d="M603.8,348.7H648c1.9,0,3.4,1.5,3.4,3.4v61.2c0,1.9-1.5,3.4-3.4,3.4h-44.2c-1.9,0-3.4-1.5-3.4-3.4v-61.2
						C600.4,350.2,601.9,348.7,603.8,348.7z"/>
				</g>
				<g>
					<path class="st13" d="M625.9,352.9L625.9,352.9c11.7,0,21.3,9.5,21.3,21.3v17c0,11.7-9.5,21.3-21.3,21.3l0,0
						c-11.7,0-21.3-9.5-21.3-21.3v-17C604.7,362.5,614.2,352.9,625.9,352.9z"/>
				</g>
				<g>
					<path class="st13" d="M600.4,352.1v6.4c0,3,3.7,4.5,5.8,2.4l6.4-6.4c2.1-2.1,0.6-5.8-2.4-5.8h-6.4
						C601.9,348.7,600.4,350.2,600.4,352.1z"/>
				</g>
				<g>
					<path class="st13" d="M648,348.7h-6.4c-3,0-4.5,3.7-2.4,5.8l6.4,6.4c2.1,2.1,5.8,0.6,5.8-2.4v-6.4
						C651.4,350.2,649.9,348.7,648,348.7z"/>
				</g>
				<g>
					<path class="st13" d="M651.4,413.1v-6.4c0-3-3.7-4.5-5.8-2.4l-6.4,6.4c-2.1,2.1-0.6,5.8,2.4,5.8h6.4
						C649.9,416.5,651.4,415,651.4,413.1z"/>
				</g>
				<g>
					<path class="st13" d="M603.8,416.5h6.4c3,0,4.5-3.7,2.4-5.8l-6.4-6.4c-2.1-2.1-5.8-0.6-5.8,2.4v6.4
						C600.4,415,601.9,416.5,603.8,416.5z"/>
				</g>
			</g>
			<g>
				<path class="st10" d="M769.8,381.9v-35.7c0-1.9,1.5-3.4,3.4-3.4h27.2c1.9,0,3.4,1.5,3.4,3.4v35.7c0,1.9-1.5,3.4-3.4,3.4h-27.2
					C771.3,385.3,769.8,383.8,769.8,381.9z"/>
			</g>
			<g>
				<circle class="st14" cx="584.9" cy="262.7" r="4.3"/>
			</g>
			<g>
				<rect x="716.9" y="392.8" class="st9" width="34" height="25.5"/>
			</g>
			<g>
				<rect x="751" y="439.3" class="st9" width="17" height="34"/>
			</g>
			<g>
				<rect x="751" y="445.2" class="st10" width="17" height="22.1"/>
			</g>
			<g>
				<rect x="716.9" y="309.3" class="st9" width="34" height="25.5"/>
			</g>
			<g>
				<rect x="721.2" y="309.3" class="st15" width="25.5" height="25.5"/>
			</g>
			<g>
				<rect x="721.2" y="392.8" class="st15" width="25.5" height="25.5"/>
			</g>
			<g>
				<circle class="st5" cx="788.5" cy="950.5" r="7.2"/>
			</g>
			<g>
				<circle class="st5" cx="587.9" cy="308.9" r="7.2"/>
			</g>
		</g>
		<g id="Components_Small">
			<g>
				<rect x="629.7" y="305.2" class="st9" width="17" height="8.5"/>
			</g>
			<g>
				<rect x="631.9" y="305.2" class="st10" width="12.8" height="8.5"/>
			</g>
			<g>
				<rect x="789.6" y="524.4" class="st9" width="8.5" height="17"/>
			</g>
			<g>
				<rect x="789.6" y="526.6" class="st10" width="8.5" height="12.8"/>
			</g>
			<g>
				<rect x="789.6" y="524.4" class="st9" width="8.5" height="17"/>
			</g>
			<g>
				<rect x="782.9" y="484.6" class="st10" width="25.5" height="8.5"/>
			</g>
			<g>
				<rect x="789.6" y="526.6" class="st10" width="8.5" height="12.8"/>
			</g>
			<g>
				<rect x="773.4" y="524.4" class="st9" width="8.5" height="17"/>
			</g>
			<g>
				<rect x="773.4" y="526.6" class="st10" width="8.5" height="12.8"/>
			</g>
			<g>
				<rect x="757.1" y="524.4" class="st9" width="8.5" height="17"/>
			</g>
			<g>
				<rect x="757.1" y="526.6" class="st5" width="8.5" height="12.8"/>
			</g>
			<g>
				<rect x="706" y="526.6" class="st9" width="6.4" height="12.8"/>
			</g>
			<g>
				<rect x="706" y="528.7" class="st10" width="6.4" height="8.5"/>
			</g>
			<g>
				<rect x="693.8" y="526.6" class="st9" width="6.4" height="12.8"/>
			</g>
			<g>
				<rect x="693.8" y="528.7" class="st10" width="6.4" height="8.5"/>
			</g>
			<g>
				<rect x="681.6" y="526.6" class="st9" width="6.4" height="12.8"/>
			</g>
			<g>
				<rect x="681.6" y="528.7" class="st5" width="6.4" height="8.5"/>
			</g>
			<g>
				<rect x="783.6" y="445.1" class="st9" width="6.4" height="12.8"/>
			</g>
			<g>
				<rect x="783.6" y="447.2" class="st5" width="6.4" height="8.5"/>
			</g>
			<g>
				<rect x="669.5" y="526.6" class="st9" width="6.4" height="12.8"/>
			</g>
			<g>
				<rect x="669.5" y="528.7" class="st5" width="6.4" height="8.5"/>
			</g>
			<g>
				<rect x="604.3" y="456.3" class="st9" width="6.4" height="12.8"/>
			</g>
			<g>
				<rect x="604.3" y="458.4" class="st5" width="6.4" height="8.5"/>
			</g>
			<g>
				<rect x="694" y="701.6" class="st9" width="6.4" height="12.8"/>
			</g>
			<g>
				<rect x="694" y="703.7" class="st5" width="6.4" height="8.5"/>
			</g>
			<g>
				<rect x="681.8" y="701.6" class="st9" width="6.4" height="12.8"/>
			</g>
			<g>
				<rect x="681.8" y="703.7" class="st5" width="6.4" height="8.5"/>
			</g>
			<g>
				<rect x="681.8" y="753.5" class="st9" width="6.4" height="12.8"/>
			</g>
			<g>
				<rect x="681.8" y="755.7" class="st5" width="6.4" height="8.5"/>
			</g>
			<g>
				<rect x="602.2" y="774.8" class="st9" width="6.4" height="12.8"/>
			</g>
			<g>
				<rect x="602.2" y="776.9" class="st5" width="6.4" height="8.5"/>
			</g>
			<g>
				<rect x="734" y="524.4" class="st9" width="8.5" height="17"/>
			</g>
			<g>
				<rect x="734" y="526.6" class="st5" width="8.5" height="12.8"/>
			</g>
			<g>
				<rect x="717.7" y="524.4" class="st9" width="8.5" height="17"/>
			</g>
			<g>
				<rect x="717.7" y="526.6" class="st5" width="8.5" height="12.8"/>
			</g>
			<g>
				<rect x="629.7" y="290.5" class="st9" width="17" height="8.5"/>
			</g>
			<g>
				<rect x="631.9" y="290.5" class="st10" width="12.8" height="8.5"/>
			</g>
			<g>
				<rect x="725.4" y="290.5" class="st9" width="17" height="8.5"/>
			</g>
			<g>
				<rect x="727.6" y="290.5" class="st10" width="12.8" height="8.5"/>
			</g>
			<g>
				<rect x="587.8" y="477.5" class="st9" width="8.5" height="17"/>
			</g>
			<g>
				<rect x="587.8" y="479.6" class="st10" width="8.5" height="12.8"/>
			</g>
			<g>
				<rect x="587.8" y="511.5" class="st9" width="8.5" height="17"/>
			</g>
			<g>
				<rect x="587.8" y="513.6" class="st10" width="8.5" height="12.8"/>
			</g>
			<g>
				<rect x="797.8" y="439.3" class="st9" width="8.5" height="17"/>
			</g>
			<g>
				<rect x="797.8" y="441.4" class="st10" width="8.5" height="12.8"/>
			</g>
			<g>
				<rect x="755.5" y="566.4" class="st9" width="12.8" height="6.4"/>
			</g>
			<g>
				<rect x="757.6" y="566.4" class="st5" width="8.5" height="6.4"/>
			</g>
			<g>
				<rect x="602.2" y="572.9" class="st9" width="12.8" height="6.4"/>
			</g>
			<g>
				<rect x="604.3" y="572.9" class="st5" width="8.5" height="6.4"/>
			</g>
			<g>
				<rect x="602.2" y="636" class="st9" width="12.8" height="6.4"/>
			</g>
			<g>
				<rect x="604.3" y="636" class="st5" width="8.5" height="6.4"/>
			</g>
			<g>
				
					<rect x="761.9" y="638.6" transform="matrix(0.7071 -0.7071 0.7071 0.7071 -231.9668 729.9141)" class="st9" width="6.4" height="12.8"/>
			</g>
			<g>
				
					<rect x="761.8" y="640.7" transform="matrix(0.7071 -0.7071 0.7071 0.7071 -231.9936 729.8495)" class="st5" width="6.4" height="8.5"/>
			</g>
			<g>
				<rect x="779.7" y="622.3" class="st9" width="17" height="8.5"/>
			</g>
			<g>
				<rect x="781.8" y="622.3" class="st10" width="12.8" height="8.5"/>
			</g>
			<g>
				<rect x="779.7" y="622.3" class="st9" width="17" height="8.5"/>
			</g>
			<g>
				<rect x="781.8" y="622.3" class="st10" width="12.8" height="8.5"/>
			</g>
			<g>
				<rect x="779.7" y="606" class="st9" width="17" height="8.5"/>
			</g>
			<g>
				<rect x="781.8" y="606" class="st10" width="12.8" height="8.5"/>
			</g>
			<g>
				<rect x="595.8" y="556.7" class="st9" width="17" height="8.5"/>
			</g>
			<g>
				<rect x="597.9" y="556.7" class="st5" width="12.8" height="8.5"/>
			</g>
			<g>
				<rect x="656.8" y="731.5" class="st9" width="17" height="8.5"/>
			</g>
			<g>
				<rect x="658.9" y="731.5" class="st10" width="12.8" height="8.5"/>
			</g>
			<g>
				<rect x="656.8" y="731.5" class="st9" width="17" height="8.5"/>
			</g>
			<g>
				<rect x="658.9" y="731.5" class="st10" width="12.8" height="8.5"/>
			</g>
		</g>
		<g id="Silkscreen">
			<g>
				<g>
					<path class="st13" d="M737.8,882.6l-1.2-1.9c0-14.2-6.5-19.8-14.2-24.2c2.2-0.6,4.6-1.2,5.3-4c4-0.9,4.6-2.8,5.3-4.6
						c0.9-0.6,4.6-2.8,4-5.9c1.9-1.2,3.1-3.1,2.5-5.6c2.2-2.2,2.8-4,1.9-5.9c2.5-3.1,1.5-4.6,0.3-6.5c1.9-3.4,0.3-7.1-5-6.5
						c-2.2-3.1-6.5-2.5-7.4-2.5c-0.9-0.9-1.9-1.9-5-1.5c-2.2-1.9-4.3-1.5-6.8-0.6c-2.8-2.2-4.6-0.3-6.8,0.3
						c-3.4-1.2-4.3,0.3-5.9,0.9c-3.7-0.9-5,0.9-6.8,2.8h-2.2c-5.6,3.4-8.4,9.9-9.6,13.3c-0.9-3.4-3.7-10.2-9.6-13.3h-2.2
						c-1.9-1.9-2.8-3.4-6.8-2.8c-1.5-0.6-2.5-2.2-5.9-0.9c-1.5-0.3-2.8-1.2-4.3-1.2l0,0c-0.9,0-1.5,0.3-2.8,0.9
						c-2.5-0.9-4.6-1.2-6.8,0.6c-3.1-0.3-4.3,0.3-5,1.5c-0.6,0-5.3-0.6-7.4,2.5c-5.3-0.6-6.8,3.1-5,6.5c-0.9,1.5-2.2,3.1,0.3,6.5
						c-0.9,1.9-0.3,3.7,1.9,5.9c-0.6,2.5,0.6,4,2.5,5.6c-0.3,3.4,3.1,5.3,4,5.9c0.3,1.9,1.2,3.7,5.3,4.6c0.6,2.8,3.1,3.4,5.3,4
						c-7.7,4.3-14.2,10.2-14.2,24.2l-1.2,1.9c-8.7,5.3-16.7,22-4.3,35.9c0.9,4.3,2.2,7.4,3.4,10.8c1.9,13.6,13.6,20.1,16.7,21.1
						c4.6,3.4,9.3,6.5,15.8,9c6.2,6.2,12.7,8.7,19.5,8.7h0.3c6.8,0,13.3-2.5,19.5-8.7c6.5-2.2,11.5-5.6,15.8-9
						c3.1-0.6,14.9-7.1,16.7-21.1c1.2-3.4,2.5-6.5,3.4-10.8C754.5,904.6,746.8,887.9,737.8,882.6z M731.3,880.2
						c-0.3,5.6-30-19.8-25.1-20.7C720.2,857.2,731.6,865.3,731.3,880.2z M718,908.3c-7.4,5-18.3,1.9-23.8-6.8
						c-5.9-8.7-4.3-19.5,3.1-24.5s18.3-1.9,23.8,6.8C727,892.9,725.4,903.7,718,908.3z M697.6,820.7c0.3,1.2,0.6,2.2,0.9,2.2
						c1.5-1.9,3.1-3.7,5-5.3c0,0.9-0.6,2.2,0.6,2.8c1.2-1.5,2.8-2.8,4.6-4c-0.9,1.5-0.3,2.2,0.3,2.8c1.5-1.2,3.1-2.8,5.9-3.7
						c-0.9,0.9-1.9,1.9-0.6,3.1c1.5-0.9,3.1-1.9,7.1-2.8c-0.9,0.9-2.8,1.9-1.5,2.8c2.2-0.6,4.3-1.2,6.8-1.5
						c-1.2,0.9-2.2,1.9-1.2,2.8c2.2-0.6,5.3-1.5,8.1-0.9l-1.9,1.9c-0.3,0.3,4.3,0.3,7.1,0.3c-0.9,1.5-2.2,3.1-2.8,5.6
						c0.3,0.3,1.9,0,3.1,0c-1.5,3.1-4,3.7-4.3,5c0.9,0.6,2.2,0.6,3.4,0c-0.9,2.2-3.1,3.4-5,5.3c0.3,0.3,1.2,0.6,3.1,0.3
						c-1.5,1.5-3.4,3.1-5.6,4.6c0.3,0.3,1.9,0.3,3.1,0.6c-2.2,1.9-4.6,3.1-7.1,4.3c1.2,0.9,2.2,0.6,3.1,0.6
						c-1.9,1.5-4.6,2.2-7.4,3.1c0.6,0.9,0.9,0.9,2.2,1.2c-2.8,1.5-7.1,0.9-8.4,1.5c0.3,0.9,0.9,1.2,2.2,1.9
						c-4.6,0.3-17.3-0.3-19.8-9.9c4.6-5.3,13.6-11.5,28.5-18.9c-11.8,4-22.3,9-31,16.4C685.2,837.7,692.3,825.7,697.6,820.7z
						 M687,855.7L687,855.7c7.4,0,16.4,5.3,16.4,10.5c0,4.6-6.5,8.4-16.4,8.1c-9.9,0-16.4-4.6-16.4-9
						C670.6,861.6,678.7,855.4,687,855.7z M649.6,851.7c1.2-0.3,1.5-0.3,2.2-1.2c-2.8-0.9-5.6-1.5-7.4-3.1c0.9,0,1.9,0.3,3.1-0.6
						c-2.5-1.2-5-2.5-7.1-4.3c1.2,0,2.8,0,3.1-0.6c-2.2-1.2-4-2.8-5.6-4.6c1.9,0.3,2.5,0,3.1-0.3c-1.5-1.9-3.7-3.1-5-5.3
						c1.2,0.3,2.5,0.6,3.4,0c-0.6-1.2-3.1-2.2-4.3-5c1.2,0,2.8,0.3,3.1,0c-0.6-2.5-1.9-4-2.8-5.6c3.1,0,7.4,0,7.1-0.3l-1.9-1.9
						c2.8-0.6,5.9,0,8.1,0.9c0.9-0.6,0-1.5-1.2-2.8c2.5,0.3,4.6,0.9,6.8,1.5c0.9-0.9-0.6-1.9-1.5-2.8c3.7,0.6,5.6,1.9,7.1,2.8
						c1.2-1.2,0-2.2-0.6-3.1c2.8,0.9,4.3,2.5,5.9,3.7c0.6-0.6,1.2-1.2,0.3-2.8c2.2,1.2,3.7,2.5,4.6,4c1.2-0.9,0.6-1.9,0.6-2.8
						c2.2,1.5,3.4,3.4,5,5.3c0.3-0.3,0.6-0.9,0.9-2.2c5,5,12.1,17,1.9,21.7c-8.7-7.1-19.2-12.4-31-16.4
						c14.9,7.7,23.8,13.6,28.5,18.9c-2.5,9.6-15.2,10.2-19.8,9.9c0.9-0.3,1.9-0.9,2.2-1.9C656.7,852.6,652.7,853.2,649.6,851.7z
						 M667.8,859.1c5.3,0.9-24.5,26.3-25.1,20.7C642.4,865,653.9,856.9,667.8,859.1z M636.6,915.8c-7.1-5.6-9.6-22.3,3.7-30
						C648.3,883.9,643.1,918.9,636.6,915.8z M664.1,945.8c-4,2.5-13.9,1.5-21.1-8.4c-4.6-8.4-4-16.7-0.9-19.2
						c5-3.1,12.7,0.9,18.6,7.7C666,931.9,668.5,942.7,664.1,945.8z M656.1,909.3c-7.4-5-8.7-15.8-3.1-24.5
						c5.9-8.7,16.4-11.8,23.8-6.8s8.7,15.8,3.1,24.5C674.3,911.1,663.5,914.2,656.1,909.3z M687,962.8c-9,0.3-17.7-7.1-17.7-9.9
						c0-3.7,10.8-6.8,18-6.8c7.1-0.3,17,2.2,17,5.9C704.7,955.4,695.7,962.8,687,962.8z M705,924.7c0,9-8.1,16.4-18,16.4
						s-18-7.1-18-16.4c0,0,0,0,0-0.3c0-9,8.1-16.4,18-16.4C696.9,908.3,705,915.5,705,924.7L705,924.7z M730.1,937.8
						c-7.7,10.5-18,10.8-22,8.1c-4-3.7-0.9-15.5,4.6-22l0,0c6.5-7.1,13.3-11.8,18-8.1C733.8,918.9,735.6,930.6,730.1,937.8z
						 M736.9,915.5c-6.5,2.8-11.8-31.9-3.7-30C746.5,893.2,744.3,909.9,736.9,915.5z"/>
				</g>
			</g>
			<g>
				<path class="st13" d="M654.2,1004.5v-14.9h3.6c1.7,0,3.1,0.5,4.1,1.6s1.4,2.6,1.4,4.6v2.5c0,2-0.5,3.5-1.5,4.6s-2.4,1.6-4.3,1.6
					L654.2,1004.5L654.2,1004.5z M656.1,991.2v11.7h1.5c1.3,0,2.3-0.4,2.9-1.1c0.6-0.8,0.9-1.9,0.9-3.4v-2.6c0-1.6-0.3-2.7-0.9-3.5
					c-0.6-0.7-1.5-1.1-2.7-1.1L656.1,991.2L656.1,991.2z"/>
				<path class="st13" d="M675.5,997.6h-5.3v5.3h6.2v1.6h-8v-14.9h7.9v1.6h-6.1v4.8h5.3L675.5,997.6L675.5,997.6z"/>
				<path class="st13" d="M680.8,1004.5v-14.9h4.3c1.4,0,2.4,0.3,3.1,1s1,1.7,1,3c0,0.7-0.2,1.3-0.5,1.8s-0.8,0.9-1.4,1.2
					c0.7,0.2,1.2,0.6,1.6,1.3c0.4,0.6,0.6,1.4,0.6,2.3c0,1.3-0.4,2.4-1.1,3.2s-1.8,1.1-3.1,1.1L680.8,1004.5L680.8,1004.5z
					 M682.7,996h2.4c0.7,0,1.2-0.2,1.6-0.7c0.4-0.4,0.6-1,0.6-1.7c0-0.8-0.2-1.4-0.5-1.8s-0.9-0.6-1.7-0.6h-2.4L682.7,996L682.7,996
					z M682.7,997.6v5.4h2.6c0.7,0,1.3-0.2,1.7-0.7s0.6-1.1,0.6-2c0-1.8-0.8-2.7-2.3-2.7H682.7L682.7,997.6z"/>
				<path class="st13" d="M703.3,989.6v10.6c0,1.4-0.4,2.5-1.2,3.3s-1.9,1.2-3.4,1.2s-2.6-0.4-3.4-1.2c-0.8-0.8-1.2-1.9-1.2-3.3
					v-10.6h1.9v10.5c0,1,0.2,1.8,0.6,2.2c0.4,0.5,1.1,0.7,2.1,0.7s1.6-0.2,2.1-0.7c0.4-0.5,0.6-1.2,0.6-2.2v-10.5H703.3L703.3,989.6
					z"/>
				<path class="st13" d="M717.6,1002.7l-0.3,0.4c-0.9,1.1-2.3,1.7-4.1,1.7c-1.6,0-2.9-0.5-3.8-1.6s-1.4-2.6-1.4-4.5v-2.9
					c0-2.1,0.4-3.7,1.3-4.7c0.8-1,2.1-1.6,3.8-1.6c1.4,0,2.5,0.4,3.3,1.2s1.2,1.9,1.3,3.4h-1.9c-0.1-0.9-0.3-1.7-0.8-2.2
					c-0.4-0.5-1.1-0.8-2-0.8c-1.1,0-1.9,0.4-2.4,1.1s-0.8,1.8-0.8,3.4v3c0,1.5,0.3,2.7,0.9,3.5s1.4,1.2,2.5,1.2c1,0,1.8-0.2,2.3-0.7
					l0.3-0.3v-3.4h-2.7v-1.6h4.6L717.6,1002.7L717.6,1002.7L717.6,1002.7z"/>
			</g>
			<g>
				<path class="st13" d="M588.8,430h-14.9v-4.3c0-1.4,0.3-2.4,1-3.1s1.7-1,3-1c0.7,0,1.3,0.2,1.8,0.5s0.9,0.8,1.2,1.4
					c0.2-0.7,0.6-1.2,1.3-1.6c0.6-0.4,1.4-0.6,2.3-0.6c1.3,0,2.4,0.4,3.2,1.1s1.1,1.8,1.1,3.1L588.8,430L588.8,430z M580.3,428.2
					v-2.4c0-0.6-0.2-1.2-0.7-1.6c-0.4-0.4-1-0.6-1.7-0.6c-0.8,0-1.4,0.2-1.8,0.5c-0.4,0.4-0.6,0.9-0.6,1.7v2.4H580.3z M581.9,428.2
					h5.4v-2.6c0-0.7-0.2-1.3-0.7-1.7c-0.5-0.4-1.1-0.6-2-0.6c-1.8,0-2.7,0.8-2.7,2.3V428.2L581.9,428.2z"/>
				<path class="st13" d="M582.7,406.8c2,0,3.6,0.4,4.7,1.3s1.7,2.1,1.7,3.7c0,1.5-0.5,2.8-1.6,3.6c-1.1,0.9-2.6,1.4-4.5,1.4h-2.8
					c-2,0-3.6-0.4-4.7-1.3s-1.7-2.1-1.7-3.7s0.5-2.8,1.6-3.7c1.1-0.9,2.6-1.3,4.6-1.3H582.7L582.7,406.8z M580.1,408.7
					c-1.6,0-2.8,0.3-3.5,0.8c-0.8,0.5-1.2,1.3-1.2,2.4c0,1,0.4,1.8,1.2,2.3s1.9,0.8,3.4,0.8h2.7c1.5,0,2.7-0.3,3.5-0.8
					s1.2-1.3,1.2-2.4s-0.4-1.8-1.1-2.3s-1.9-0.8-3.4-0.8H580.1L580.1,408.7z"/>
				<path class="st13" d="M582.7,392.1c2,0,3.6,0.4,4.7,1.3s1.7,2.1,1.7,3.7c0,1.5-0.5,2.8-1.6,3.6c-1.1,0.9-2.6,1.4-4.5,1.4h-2.8
					c-2,0-3.6-0.4-4.7-1.3s-1.7-2.1-1.7-3.7s0.5-2.8,1.6-3.7c1.1-0.9,2.6-1.3,4.6-1.3H582.7L582.7,392.1z M580.1,394
					c-1.6,0-2.8,0.3-3.5,0.8c-0.8,0.5-1.2,1.3-1.2,2.4c0,1,0.4,1.8,1.2,2.3s1.9,0.8,3.4,0.8h2.7c1.5,0,2.7-0.3,3.5-0.8
					s1.2-1.3,1.2-2.4s-0.4-1.8-1.1-2.3s-1.9-0.8-3.4-0.8H580.1L580.1,394z"/>
				<path class="st13" d="M575.5,378.6v3.9h13.3v1.9h-13.3v3.9h-1.6v-9.7L575.5,378.6L575.5,378.6z"/>
				<path class="st13" d="M585.1,368c-0.7,0-1.3,0.2-1.7,0.6s-0.8,1.1-1.2,2.2s-0.8,1.9-1.2,2.4c-0.4,0.6-0.9,1-1.4,1.3
					s-1.1,0.4-1.8,0.4c-1.2,0-2.2-0.4-2.9-1.2c-0.8-0.8-1.1-1.8-1.1-3.1c0-0.9,0.2-1.7,0.6-2.3s0.9-1.2,1.6-1.6s1.5-0.6,2.3-0.6v1.9
					c-0.9,0-1.6,0.2-2.1,0.7s-0.8,1.1-0.8,1.9s0.2,1.3,0.6,1.8s1,0.6,1.8,0.6c0.6,0,1.2-0.2,1.6-0.7s0.8-1.1,1.1-2.1
					c0.5-1.5,1.1-2.5,1.8-3.2c0.7-0.6,1.6-0.9,2.8-0.9s2.2,0.4,2.9,1.2s1.1,1.9,1.1,3.2c0,0.9-0.2,1.7-0.6,2.4
					c-0.4,0.7-0.9,1.3-1.6,1.7c-0.7,0.4-1.5,0.6-2.4,0.6v-1.9c0.9,0,1.6-0.3,2.2-0.8c0.5-0.5,0.8-1.2,0.8-2.1c0-0.8-0.2-1.4-0.6-1.9
					S585.8,368,585.1,368z"/>
				<path class="st13" d="M581.9,354.3v5.3h5.3v-6.2h1.6v8h-14.9v-7.9h1.6v6h4.8v-5.3h1.6L581.9,354.3L581.9,354.3z"/>
				<path class="st13" d="M587.2,347.1v-5.9h1.6v7.7h-14.9V347L587.2,347.1L587.2,347.1z"/>
			</g>
			<g>
				<path class="st13" d="M573,288.9h5.9v1.6h-7.7v-14.9h1.9v13.3H573z"/>
				<path class="st13" d="M590.3,283.6H585v5.3h6.2v1.6h-8v-14.9h7.9v1.6H585v4.8h5.3V283.6z"/>
				<path class="st13" d="M595.7,290.5v-14.9h3.6c1.7,0,3.1,0.5,4.1,1.6s1.4,2.6,1.4,4.6v2.5c0,2-0.5,3.5-1.5,4.6s-2.4,1.6-4.3,1.6
					L595.7,290.5L595.7,290.5z M597.6,277.1v11.7h1.5c1.3,0,2.3-0.4,2.9-1.1c0.6-0.8,0.9-1.9,0.9-3.4v-2.6c0-1.6-0.3-2.7-0.9-3.5
					c-0.6-0.7-1.5-1.1-2.7-1.1H597.6z"/>
			</g>
			<g>
				<path class="st13" d="M556.2,216.1h-1.8v-12.6l-3.1,1.4v-1.7l4.7-2h0.3L556.2,216.1L556.2,216.1z"/>
			</g>
			<g>
				<path class="st13" d="M559.1,259.3h-8.3V258l4.3-5.6c0.6-0.9,1.1-1.6,1.3-2.1c0.2-0.6,0.4-1.1,0.4-1.8c0-0.8-0.2-1.4-0.6-1.9
					s-0.9-0.7-1.5-0.7c-0.8,0-1.3,0.3-1.8,0.8c-0.4,0.5-0.6,1.3-0.6,2.3h-1.8c0-1.4,0.4-2.5,1.1-3.3s1.8-1.3,3.1-1.3
					c1.2,0,2.1,0.4,2.8,1.1c0.7,0.7,1,1.7,1,2.9c0,1.5-0.8,3.2-2.3,5.2l-3.3,4.3h6.2L559.1,259.3L559.1,259.3z"/>
			</g>
			<g>
				<path class="st13" d="M802.6,250.9h1.2c0.7,0,1.3-0.2,1.7-0.7s0.6-1.1,0.6-1.9c0-1.8-0.7-2.6-2-2.6c-0.6,0-1.2,0.2-1.5,0.7
					s-0.6,1.1-0.6,1.9h-1.8c0-1.2,0.4-2.2,1.1-3s1.7-1.2,2.8-1.2c1.2,0,2.1,0.4,2.8,1.1c0.7,0.7,1,1.8,1,3.1c0,0.7-0.2,1.3-0.5,1.9
					c-0.4,0.6-0.8,1-1.4,1.3c1.4,0.5,2.1,1.7,2.1,3.5c0,1.3-0.4,2.4-1.1,3.2c-0.7,0.8-1.7,1.2-2.9,1.2s-2.1-0.4-2.9-1.1
					c-0.7-0.7-1.1-1.8-1.1-3h1.8c0,0.8,0.2,1.4,0.6,1.9s0.9,0.7,1.6,0.7s1.2-0.2,1.6-0.7s0.6-1.2,0.6-2.1c0-1.8-0.9-2.7-2.6-2.7
					h-1.1L802.6,250.9L802.6,250.9z"/>
				<path class="st13" d="M818.7,252.9c-0.7,0.9-1.6,1.4-2.5,1.4c-1.1,0-2-0.5-2.6-1.4s-1-2.1-1-3.6c0-1.6,0.3-2.8,1.1-3.8
					s1.7-1.4,2.9-1.4c1.3,0,2.2,0.5,2.9,1.6s1.1,2.6,1.1,4.5v0.6c0,1.7-0.1,3-0.4,4s-0.6,1.9-1.1,2.5s-1.1,1.1-1.9,1.4
					s-1.7,0.5-2.8,0.5v-1.6h0.3c1.3,0,2.3-0.4,2.9-1.2C818.3,255.8,818.6,254.6,818.7,252.9z M816.4,252.8c0.4,0,0.9-0.2,1.3-0.5
					c0.4-0.4,0.7-0.8,1-1.4V250c0-1.2-0.2-2.2-0.6-3s-0.9-1.2-1.6-1.2s-1.2,0.3-1.6,1c-0.4,0.6-0.6,1.5-0.6,2.5s0.2,1.9,0.6,2.5
					C815.3,252.4,815.8,252.8,816.4,252.8z"/>
			</g>
			<g>
				<path class="st13" d="M676.1,275.5v10.6c0,1.4-0.4,2.5-1.2,3.3s-1.9,1.2-3.4,1.2s-2.6-0.4-3.4-1.2c-0.8-0.8-1.2-1.9-1.2-3.3
					v-10.6h1.9V286c0,1,0.2,1.8,0.6,2.2s1.1,0.7,2.1,0.7s1.6-0.2,2.1-0.7s0.6-1.2,0.6-2.2v-10.5H676.1z"/>
				<path class="st13" d="M687.7,286.7c0-0.7-0.2-1.3-0.6-1.7c-0.4-0.4-1.1-0.8-2.2-1.2s-1.9-0.8-2.4-1.2c-0.6-0.4-1-0.9-1.3-1.4
					s-0.4-1.1-0.4-1.8c0-1.2,0.4-2.2,1.2-2.9s1.8-1.1,3.1-1.1c0.9,0,1.7,0.2,2.3,0.6s1.2,0.9,1.6,1.6s0.6,1.5,0.6,2.3h-1.9
					c0-0.9-0.2-1.6-0.7-2.1c-0.4-0.5-1.1-0.8-1.9-0.8s-1.3,0.2-1.8,0.6s-0.6,1-0.6,1.8c0,0.6,0.2,1.2,0.7,1.6s1.1,0.8,2.1,1.1
					c1.5,0.5,2.5,1.1,3.2,1.8c0.6,0.7,0.9,1.6,0.9,2.8c0,1.2-0.4,2.2-1.2,2.9c-0.8,0.7-1.9,1.1-3.2,1.1c-0.9,0-1.7-0.2-2.4-0.6
					s-1.3-0.9-1.7-1.6s-0.6-1.5-0.6-2.4h1.9c0,0.9,0.3,1.6,0.8,2.2c0.5,0.5,1.2,0.8,2.1,0.8c0.8,0,1.4-0.2,1.9-0.6
					C687.4,288,687.7,287.4,687.7,286.7z"/>
				<path class="st13" d="M694.1,290.5v-14.9h4.3c1.4,0,2.4,0.3,3.1,1s1,1.7,1,3c0,0.7-0.2,1.3-0.5,1.8s-0.8,0.9-1.4,1.2
					c0.7,0.2,1.2,0.6,1.6,1.3s0.6,1.4,0.6,2.3c0,1.3-0.4,2.4-1.1,3.2c-0.7,0.8-1.8,1.1-3.1,1.1H694.1L694.1,290.5z M696,281.9h2.4
					c0.6,0,1.2-0.2,1.6-0.7s0.6-1,0.6-1.7c0-0.8-0.2-1.4-0.5-1.8c-0.4-0.4-0.9-0.6-1.7-0.6H696V281.9z M696,283.5v5.4h2.6
					c0.7,0,1.3-0.2,1.7-0.7s0.6-1.1,0.6-2c0-1.8-0.8-2.7-2.3-2.7L696,283.5L696,283.5z"/>
			</g>
			<g>
				<path class="st13" d="M578.5,970.4v3.8h8.6v2.7h-21.3v-6c0-2.1,0.5-3.7,1.6-4.7s2.7-1.6,4.8-1.6c1.3,0,2.5,0.3,3.4,0.9
					s1.7,1.4,2.2,2.5l9.1-4.1h0.2v2.9L578.5,970.4z M576.2,974.1v-3.3c0-1.1-0.4-2-1.1-2.7s-1.7-1-2.9-1c-2.7,0-4.1,1.2-4.1,3.7v3.2
					L576.2,974.1L576.2,974.1z"/>
				<path class="st13" d="M587.2,948.6c-0.3,0.2-0.9,0.3-1.7,0.3c1.3,0.9,2,2.1,2,3.5s-0.4,2.6-1.2,3.4c-0.8,0.8-1.9,1.2-3.4,1.2
					c-1.6,0-2.9-0.5-3.8-1.6s-1.4-2.6-1.5-4.5V949h-1.7c-0.9,0-1.6,0.2-2,0.6s-0.6,1.1-0.6,1.9c0,0.8,0.2,1.4,0.7,1.9
					s1.1,0.7,1.8,0.7v2.6c-0.8,0-1.6-0.2-2.3-0.7s-1.3-1.1-1.7-1.9s-0.6-1.7-0.6-2.7c0-1.6,0.4-2.9,1.2-3.7s2-1.3,3.5-1.3h8
					c1.2,0,2.3-0.2,3.2-0.5h0.2L587.2,948.6L587.2,948.6z M585.1,952c0-0.6-0.2-1.2-0.5-1.8s-0.8-1-1.3-1.3h-3.8v1.5
					c0,1.2,0.3,2.2,0.8,2.9s1.3,1.1,2.2,1.1s1.6-0.2,2-0.5S585.1,952.9,585.1,952z"/>
				<path class="st13" d="M583.1,930.2c-0.6,0-1,0.2-1.4,0.6s-0.9,1.2-1.4,2.4c-0.6,1.4-1.1,2.4-1.5,3s-0.9,1-1.4,1.3
					s-1.1,0.4-1.9,0.4c-1.3,0-2.4-0.5-3.2-1.4s-1.3-2.1-1.3-3.6s0.4-2.8,1.3-3.7s2.1-1.4,3.5-1.4v2.6c-0.7,0-1.3,0.2-1.8,0.7
					s-0.8,1.1-0.8,1.8c0,0.8,0.2,1.4,0.6,1.8s0.9,0.7,1.6,0.7c0.5,0,0.9-0.2,1.3-0.5c0.3-0.3,0.7-1.1,1.3-2.3
					c0.8-1.9,1.5-3.2,2.2-3.9s1.6-1,2.7-1c1.4,0,2.5,0.5,3.3,1.4s1.2,2.2,1.2,3.8c0,1.7-0.5,3-1.4,4s-2.1,1.5-3.6,1.5v-2.6
					c0.9,0,1.6-0.3,2.1-0.8s0.7-1.2,0.7-2.1c0-0.9-0.2-1.5-0.6-2S583.8,930.2,583.1,930.2z"/>
				<path class="st13" d="M580,908.3c2.5,0,4.4,0.5,5.6,1.4s1.8,2.2,1.8,3.8s-0.6,2.8-1.8,3.7h7.6v2.6h-21.9v-2.3l1.8-0.1
					c-1.4-0.9-2.1-2.1-2.1-3.7c0-1.7,0.6-3,1.8-3.9s3-1.3,5.4-1.3h1.8L580,908.3L580,908.3z M578.5,910.8c-1.8,0-3.1,0.3-3.9,0.8
					s-1.3,1.4-1.3,2.6c0,1.2,0.6,2.2,1.9,2.8h8.2c1.2-0.6,1.8-1.6,1.8-2.9c0-1.2-0.4-2-1.3-2.6c-0.8-0.6-2.1-0.8-3.9-0.8
					L578.5,910.8L578.5,910.8z"/>
				<path class="st13" d="M580,888.9c2.5,0,4.3,0.4,5.6,1.3s1.9,2.2,1.9,3.9s-0.7,2.9-2.2,3.8l1.9,0.1v2.4h-22.5v-2.6h8.4
					c-1.4-0.8-2-2.1-2-3.7c0-1.7,0.6-3,1.8-3.9s3.1-1.3,5.6-1.3H580z M578.5,891.5c-1.9,0-3.2,0.3-4,0.8s-1.2,1.4-1.2,2.5
					c0,1.3,0.7,2.3,2.2,3h7.5c1.4-0.6,2.1-1.7,2.1-3c0-1.2-0.4-2-1.2-2.5s-2.1-0.8-3.8-0.8H578.5L578.5,891.5z"/>
				<path class="st13" d="M587.4,875.5c0,2-0.6,3.5-1.8,4.5s-2.9,1.6-5.2,1.6h-1.9c-2.4,0-4.2-0.5-5.6-1.5c-1.3-1-2-2.5-2-4.3
					c0-1.9,0.6-3.2,1.8-4.2s3-1.4,5.5-1.4h1.7v8.8h0.4c1.7,0,2.9-0.3,3.7-1c0.8-0.6,1.2-1.6,1.2-2.8c0-0.8-0.1-1.4-0.4-2
					s-0.7-1.1-1.4-1.6l1.6-1.3C586.7,871.4,587.4,873.1,587.4,875.5z M573.2,875.7c0,1.1,0.4,1.9,1.1,2.4s1.9,0.8,3.4,0.9v-6.2h-0.4
					c-1.5,0.1-2.6,0.3-3.2,0.8C573.6,874.1,573.2,874.8,573.2,875.7z"/>
				<path class="st13" d="M573.7,856c-0.1,0.4-0.1,0.8-0.1,1.2c0,1.3,0.7,2.3,2.2,2.8h11.3v2.6h-15.8v-2.5h1.6
					c-1.3-0.7-1.9-1.7-1.9-2.9c0-0.4,0.1-0.8,0.2-1L573.7,856z"/>
				<path class="st13" d="M573.7,842.4c-0.1,0.4-0.1,0.8-0.1,1.2c0,1.3,0.7,2.3,2.2,2.8h11.3v2.6h-15.8v-2.5h1.6
					c-1.3-0.7-1.9-1.7-1.9-2.9c0-0.4,0.1-0.8,0.2-1L573.7,842.4z"/>
				<path class="st13" d="M582.8,831l-11.5-2.9v-2.8l18.1,5.2c1.4,0.4,2.4,0.9,3.1,1.7s1.1,1.5,1.1,2.4c0,0.4-0.1,0.8-0.2,1.3h-2.2
					l0.1-0.6c0-0.8-0.2-1.3-0.5-1.8c-0.4-0.4-1-0.8-1.9-1l-1.8-0.5l-15.7,4.7v-2.8L582.8,831z"/>
				<path class="st13" d="M578.8,803.9h8.3v2.7h-21.3v-6.8c0-2,0.6-3.5,1.8-4.7s2.8-1.7,4.7-1.7c2.1,0,3.6,0.5,4.7,1.6
					s1.7,2.6,1.7,4.6L578.8,803.9L578.8,803.9L578.8,803.9z M576.5,803.9v-4.1c0-1.2-0.4-2.1-1.1-2.7c-0.7-0.6-1.7-1-3.1-1
					c-1.3,0-2.3,0.3-3.1,1s-1.2,1.6-1.2,2.7v4.1H576.5L576.5,803.9z"/>
				<path class="st13" d="M567.1,782.8c0.4,0,0.8,0.1,1.1,0.4s0.4,0.6,0.4,1.1s-0.1,0.9-0.4,1.1s-0.7,0.4-1.1,0.4s-0.8-0.1-1.1-0.4
					s-0.5-0.6-0.5-1.1s0.2-0.9,0.5-1.1C566.3,782.9,566.7,782.8,567.1,782.8z M587.2,783v2.6h-15.8V783H587.2z"/>
				<path class="st13" d="M578.8,760h8.3v2.7h-21.3v-6.8c0-2,0.6-3.5,1.8-4.7s2.8-1.7,4.7-1.7c2.1,0,3.6,0.5,4.7,1.6
					s1.7,2.6,1.7,4.6L578.8,760L578.8,760L578.8,760z M576.5,760v-4.1c0-1.2-0.4-2.1-1.1-2.7c-0.7-0.6-1.7-1-3.1-1
					c-1.3,0-2.3,0.3-3.1,1s-1.2,1.6-1.2,2.7v4.1H576.5L576.5,760z"/>
				<path class="st13" d="M567.1,739c0.4,0,0.8,0.1,1.1,0.4s0.4,0.6,0.4,1.1s-0.1,0.9-0.4,1.1s-0.7,0.4-1.1,0.4s-0.8-0.1-1.1-0.4
					s-0.5-0.6-0.5-1.1s0.2-0.9,0.5-1.1C566.3,739.1,566.7,739,567.1,739z M587.2,739.2v2.6h-15.8v-2.6H587.2z"/>
				<path class="st13" d="M585.2,725.1c0-0.9-0.3-1.5-0.8-2.1s-1.3-0.8-2.3-0.8v-2.4c1.5,0.1,2.8,0.6,3.8,1.6s1.5,2.3,1.5,3.7
					c0,2-0.6,3.5-1.9,4.5s-3.1,1.5-5.5,1.5h-1.7c-2.4,0-4.2-0.5-5.5-1.5s-1.9-2.5-1.9-4.5c0-1.6,0.5-2.9,1.5-3.9s2.4-1.5,4.2-1.5
					v2.4c-1.2,0.1-2.1,0.3-2.6,0.8s-0.9,1.2-0.9,2.1c0,1.2,0.4,2,1.1,2.6s2,0.8,3.7,0.9h2c1.9,0,3.2-0.3,4-0.8
					S585.2,726.3,585.2,725.1z"/>
				<path class="st13" d="M578.5,712.8c-2.3,0-4.1-0.6-5.5-1.7s-2-2.6-2-4.4s0.7-3.3,2-4.4c1.3-1.1,3.1-1.7,5.3-1.7h1.7
					c2.3,0,4.1,0.6,5.4,1.7s2,2.6,2,4.5c0,1.8-0.6,3.3-1.9,4.4c-1.3,1.1-3.1,1.7-5.3,1.7L578.5,712.8L578.5,712.8z M580,710.2
					c1.6,0,2.9-0.3,3.8-1s1.4-1.5,1.4-2.6c0-2.3-1.7-3.5-5-3.5h-1.8c-1.6,0-2.9,0.3-3.8,1s-1.4,1.5-1.4,2.6s0.5,1.9,1.4,2.6
					s2.2,1,3.8,1L580,710.2L580,710.2z"/>
				<path class="st13" d="M578.2,681.4c-2.8,0-5.3-0.6-7.7-1.9s-4.2-3-5.6-5.3s-2-4.7-2-7.3s0.7-5.1,2-7.3s3.2-4,5.6-5.3
					s4.9-1.9,7.7-1.9c2.7,0,5.2,0.6,7.6,1.8s4.2,3,5.7,5.2s2.1,4.7,2.1,7.5c0,2.7-0.7,5.2-2.1,7.4s-3.3,4-5.7,5.3
					S580.9,681.4,578.2,681.4z M578.2,679c2.3,0,4.5-0.5,6.5-1.6s3.6-2.6,4.7-4.5s1.7-3.9,1.7-6.1s-0.6-4.2-1.7-6.1
					s-2.7-3.4-4.7-4.5s-4.2-1.6-6.5-1.6s-4.5,0.5-6.5,1.6s-3.5,2.6-4.7,4.4c-1.1,1.9-1.7,3.9-1.7,6.1c0,2.2,0.6,4.2,1.7,6.1
					s2.7,3.4,4.7,4.5C573.7,678.5,575.9,679,578.2,679z M580.9,660.3c2.1,0,3.7,0.6,4.8,1.8s1.7,2.9,1.7,5s-0.7,3.9-2.2,5.2
					c-1.4,1.3-3.4,1.9-5.9,1.9H577c-2.4,0-4.3-0.7-5.8-2c-1.4-1.3-2.2-3-2.2-5.1c0-2.2,0.6-3.9,1.7-5s2.7-1.8,4.7-1.8v3
					c-1.4,0-2.3,0.3-2.9,1s-0.9,1.6-0.9,2.8c0,1.3,0.5,2.3,1.4,3s2.3,1.1,3.9,1.1h2.3c1.6,0,2.9-0.4,3.9-1.1s1.4-1.8,1.4-3
					c0-1.3-0.3-2.2-0.9-2.8s-1.6-1-2.9-1L580.9,660.3L580.9,660.3z"/>
				<path class="st13" d="M587.2,630.3v11.9h-1.9l-8.1-6.1c-1.2-0.9-2.3-1.6-3.1-1.9c-0.8-0.4-1.6-0.5-2.5-0.5
					c-1.1,0-2.1,0.3-2.8,0.8s-1.1,1.2-1.1,2.1c0,1.1,0.4,1.9,1.1,2.5s1.8,0.9,3.2,0.9v2.6c-2,0-3.6-0.5-4.8-1.6s-1.8-2.5-1.8-4.4
					c0-1.7,0.5-3,1.6-4s2.4-1.5,4.2-1.5c2.1,0,4.6,1.1,7.5,3.3l6.2,4.7v-8.8H587.2L587.2,630.3z"/>
				<path class="st13" d="M578.1,611.5c3.1,0,5.5,0.5,7.1,1.4s2.3,2.4,2.3,4.3c0,1.9-0.7,3.3-2.2,4.3s-3.7,1.4-6.7,1.5h-3.7
					c-3.1,0-5.4-0.5-7-1.4c-1.5-0.9-2.3-2.4-2.3-4.3c0-1.9,0.7-3.3,2.2-4.3c1.5-0.9,3.7-1.4,6.6-1.5H578.1z M574.4,614.1
					c-2.3,0-3.9,0.2-5,0.7s-1.6,1.3-1.6,2.4c0,1.1,0.5,1.8,1.6,2.3s2.6,0.8,4.8,0.8h4.4c2.2,0,3.9-0.3,5.1-0.8s1.7-1.3,1.7-2.4
					c0-1.1-0.5-1.8-1.6-2.3s-2.7-0.8-4.9-0.8L574.4,614.1L574.4,614.1z"/>
				<path class="st13" d="M587.2,591.7v11.9h-1.9l-8.1-6.1c-1.2-0.9-2.3-1.6-3.1-1.9s-1.6-0.5-2.5-0.5c-1.1,0-2.1,0.3-2.8,0.8
					s-1.1,1.2-1.1,2.1c0,1.1,0.4,1.9,1.1,2.5s1.8,0.9,3.2,0.9v2.6c-2,0-3.6-0.5-4.8-1.6s-1.8-2.5-1.8-4.4c0-1.7,0.5-3,1.6-4
					s2.4-1.5,4.2-1.5c2.1,0,4.6,1.1,7.5,3.3l6.2,4.7v-8.8H587.2L587.2,591.7z"/>
				<path class="st13" d="M578.1,572.9c3.1,0,5.5,0.5,7.1,1.4s2.3,2.4,2.3,4.3c0,1.9-0.7,3.3-2.2,4.3s-3.7,1.4-6.7,1.5h-3.7
					c-3.1,0-5.4-0.5-7-1.4s-2.3-2.4-2.3-4.3c0-1.9,0.7-3.3,2.2-4.3s3.7-1.4,6.6-1.5H578.1z M574.4,575.5c-2.3,0-3.9,0.2-5,0.7
					s-1.6,1.3-1.6,2.4c0,1.1,0.5,1.8,1.6,2.3s2.6,0.8,4.8,0.8h4.4c2.2,0,3.9-0.3,5.1-0.8s1.7-1.3,1.7-2.4c0-1.1-0.5-1.8-1.6-2.3
					s-2.7-0.8-4.9-0.8L574.4,575.5L574.4,575.5z"/>
			</g>
			<g>
				<path class="st16" d="M639.7,652H638v3.8h-1.2v-9.4h2.6c0.9,0,1.6,0.2,2.1,0.7s0.7,1.2,0.7,2.1c0,0.6-0.1,1.1-0.4,1.5
					s-0.6,0.8-1.1,1l1.8,4v0.1h-1.3L639.7,652z M638,651h1.4c0.5,0,0.9-0.2,1.2-0.5s0.4-0.7,0.4-1.3c0-1.2-0.5-1.8-1.6-1.8H638V651
					L638,651z"/>
				<path class="st16" d="M646.4,652.1v3.7h-1.2v-9.4h3c0.9,0,1.6,0.3,2.1,0.8s0.7,1.2,0.7,2.1c0,0.9-0.2,1.6-0.7,2.1
					s-1.1,0.7-2,0.8L646.4,652.1L646.4,652.1z M646.4,651.1h1.8c0.5,0,0.9-0.2,1.2-0.5s0.4-0.8,0.4-1.3c0-0.6-0.1-1-0.4-1.4
					s-0.7-0.5-1.2-0.5h-1.8V651.1z"/>
				<path class="st16" d="M658.8,655.8h-5.2V655l2.7-3.5c0.4-0.5,0.7-1,0.8-1.3c0.2-0.3,0.2-0.7,0.2-1.1c0-0.5-0.1-0.9-0.3-1.2
					s-0.5-0.5-0.9-0.5c-0.5,0-0.8,0.2-1.1,0.5s-0.4,0.8-0.4,1.4h-1.1c0-0.9,0.2-1.6,0.7-2.1s1.1-0.8,1.9-0.8c0.7,0,1.3,0.2,1.8,0.7
					c0.4,0.5,0.6,1.1,0.6,1.8c0,0.9-0.5,2-1.4,3.3l-2.1,2.7h3.9L658.8,655.8L658.8,655.8z"/>
				<path class="st16" d="M663.6,652.3h-2.7v-1h2.7V652.3z"/>
				<path class="st16" d="M670.8,648.9c0,0.5-0.1,0.9-0.3,1.3s-0.5,0.7-0.8,0.9c0.4,0.2,0.7,0.5,1,0.9c0.2,0.4,0.4,0.9,0.4,1.4
					c0,0.8-0.2,1.5-0.7,1.9c-0.5,0.5-1.1,0.7-1.8,0.7s-1.4-0.2-1.8-0.7c-0.5-0.5-0.7-1.1-0.7-1.9c0-0.5,0.1-1,0.4-1.4
					c0.2-0.4,0.6-0.7,1-0.9c-0.4-0.2-0.6-0.5-0.8-0.9s-0.3-0.8-0.3-1.2c0-0.8,0.2-1.4,0.6-1.9s1-0.7,1.7-0.7s1.3,0.2,1.7,0.7
					C670.6,647.4,670.8,648.1,670.8,648.9z M669.9,653.3c0-0.5-0.1-1-0.4-1.3s-0.6-0.5-1-0.5s-0.8,0.2-1,0.5s-0.4,0.8-0.4,1.3
					s0.1,1,0.4,1.3s0.6,0.5,1,0.5s0.8-0.2,1-0.5S669.9,653.8,669.9,653.3z M669.7,648.9c0-0.5-0.1-0.9-0.3-1.2s-0.5-0.5-0.9-0.5
					s-0.7,0.1-0.9,0.4s-0.3,0.7-0.3,1.2s0.1,0.9,0.3,1.2s0.5,0.4,0.9,0.4s0.7-0.1,0.9-0.4S669.7,649.4,669.7,648.9z"/>
				<path class="st16" d="M678.8,651.8c0,1.4-0.2,2.4-0.6,3.1c-0.4,0.7-1,1-1.9,1c-0.8,0-1.5-0.3-1.9-1s-0.6-1.6-0.6-3v-1.6
					c0-1.4,0.2-2.4,0.6-3.1c0.4-0.7,1-1,1.9-1c0.8,0,1.5,0.3,1.9,1c0.4,0.6,0.6,1.6,0.6,2.9V651.8z M677.7,650.2
					c0-1-0.1-1.7-0.3-2.2s-0.6-0.7-1.1-0.7s-0.8,0.2-1,0.7s-0.3,1.2-0.3,2.1v1.9c0,1,0.1,1.7,0.3,2.2s0.6,0.7,1,0.7
					c0.5,0,0.8-0.2,1-0.7s0.3-1.2,0.3-2.1L677.7,650.2L677.7,650.2z"/>
				<path class="st16" d="M704.3,655.8h-5.2V655l2.7-3.5c0.4-0.5,0.7-1,0.8-1.3c0.2-0.3,0.2-0.7,0.2-1.1c0-0.5-0.1-0.9-0.3-1.2
					s-0.5-0.5-0.9-0.5c-0.5,0-0.8,0.2-1.1,0.5s-0.4,0.8-0.4,1.4H699c0-0.9,0.2-1.6,0.7-2.1s1.1-0.8,1.9-0.8c0.7,0,1.3,0.2,1.8,0.7
					c0.4,0.5,0.6,1.1,0.6,1.8c0,0.9-0.5,2-1.4,3.3l-2.1,2.7h3.9L704.3,655.8L704.3,655.8z"/>
				<path class="st16" d="M711.9,651.8c0,1.4-0.2,2.4-0.6,3.1c-0.4,0.7-1,1-1.9,1c-0.8,0-1.5-0.3-1.9-1s-0.6-1.6-0.6-3v-1.6
					c0-1.4,0.2-2.4,0.6-3.1c0.4-0.7,1-1,1.9-1c0.8,0,1.5,0.3,1.9,1c0.4,0.6,0.6,1.6,0.6,2.9V651.8z M710.7,650.2
					c0-1-0.1-1.7-0.3-2.2s-0.6-0.7-1.1-0.7s-0.8,0.2-1,0.7s-0.3,1.2-0.3,2.1v1.9c0,1,0.1,1.7,0.3,2.2s0.6,0.7,1,0.7
					c0.5,0,0.8-0.2,1-0.7s0.3-1.2,0.3-2.1L710.7,650.2L710.7,650.2z"/>
				<path class="st16" d="M715.1,656.6h-1l3.3-10.2h1L715.1,656.6z"/>
				<path class="st16" d="M726.2,655.8H721V655l2.7-3.5c0.4-0.5,0.7-1,0.8-1.3c0.2-0.3,0.2-0.7,0.2-1.1c0-0.5-0.1-0.9-0.3-1.2
					s-0.5-0.5-0.9-0.5c-0.5,0-0.8,0.2-1.1,0.5s-0.4,0.8-0.4,1.4h-1.1c0-0.9,0.2-1.6,0.7-2.1s1.1-0.8,1.9-0.8c0.7,0,1.3,0.2,1.8,0.7
					c0.4,0.5,0.6,1.1,0.6,1.8c0,0.9-0.5,2-1.4,3.3l-2.1,2.7h3.9L726.2,655.8L726.2,655.8z"/>
				<path class="st16" d="M732.1,655.8H731v-7.9l-2,0.9v-1.1l2.9-1.3h0.2L732.1,655.8L732.1,655.8z"/>
				<path class="st16" d="M637.9,667.1v3.7h-1.2v-9.4h3c0.9,0,1.6,0.3,2.1,0.8s0.7,1.2,0.7,2.1c0,0.9-0.2,1.6-0.7,2.1
					s-1.1,0.7-2,0.8L637.9,667.1L637.9,667.1z M637.9,666.1h1.8c0.5,0,0.9-0.2,1.2-0.5s0.4-0.8,0.4-1.3c0-0.6-0.1-1-0.4-1.4
					c-0.3-0.3-0.7-0.5-1.2-0.5h-1.8V666.1z"/>
				<path class="st16" d="M649,661.4v1h-0.2c-0.8,0-1.4,0.3-1.8,0.8s-0.7,1.2-0.7,2.2c0.4-0.5,0.9-0.8,1.6-0.8s1.2,0.3,1.6,0.9
					c0.4,0.6,0.6,1.3,0.6,2.2c0,1-0.2,1.8-0.7,2.3c-0.4,0.6-1.1,0.9-1.8,0.9c-0.8,0-1.4-0.3-1.8-1s-0.7-1.6-0.7-2.7v-0.5
					c0-1.3,0.1-2.3,0.4-3.1s0.7-1.3,1.2-1.7s1.2-0.6,2-0.6L649,661.4L649,661.4z M647.7,665.6c-0.3,0-0.6,0.1-0.9,0.4
					c-0.3,0.2-0.5,0.5-0.6,0.9v0.5c0,0.8,0.1,1.4,0.4,1.9s0.6,0.7,1,0.7s0.8-0.2,1-0.6c0.2-0.4,0.4-0.9,0.4-1.6
					c0-0.6-0.1-1.2-0.4-1.6C648.4,665.8,648.1,665.6,647.7,665.6z"/>
				<path class="st16" d="M657.2,667.7h1v1h-1v2.2h-1.1v-2.2h-3.5V668l3.5-6.5h1.2L657.2,667.7L657.2,667.7z M653.8,667.7h2.3v-4.5
					L653.8,667.7z"/>
				<path class="st16" d="M662.5,661.4l2.4,7.7l2.4-7.7h1.5v9.4h-1.2v-3.7l0.1-3.7l-2.5,7.3h-0.9l-2.4-7.3l0.1,3.6v3.7h-1.2v-9.4
					h1.7L662.5,661.4L662.5,661.4z"/>
				<path class="st16" d="M675.4,670.8h-1.1v-7.9l-2,0.9v-1.1l2.9-1.3h0.2L675.4,670.8L675.4,670.8z"/>
				<path class="st16" d="M680.3,666.1l0.4-4.7h4.1v1.1h-3.1l-0.2,2.6c0.4-0.3,0.8-0.4,1.2-0.4c0.7,0,1.3,0.3,1.7,0.9
					c0.4,0.6,0.6,1.3,0.6,2.3s-0.2,1.7-0.7,2.3s-1.1,0.8-1.9,0.8c-0.7,0-1.3-0.2-1.7-0.7s-0.7-1.1-0.8-1.9h1.1
					c0.1,0.5,0.2,0.9,0.5,1.2c0.2,0.3,0.6,0.4,1,0.4s0.8-0.2,1-0.6s0.4-0.9,0.4-1.6c0-0.6-0.1-1.1-0.4-1.5s-0.6-0.6-1.1-0.6
					c-0.4,0-0.7,0.1-0.9,0.3l-0.3,0.3L680.3,666.1z"/>
				<path class="st16" d="M687.9,670.2c0-0.2,0.1-0.4,0.2-0.5s0.3-0.2,0.6-0.2c0.2,0,0.4,0.1,0.6,0.2c0.1,0.1,0.2,0.3,0.2,0.5
					s-0.1,0.4-0.2,0.5s-0.3,0.2-0.6,0.2c-0.2,0-0.4-0.1-0.6-0.2S687.9,670.4,687.9,670.2z"/>
				<path class="st16" d="M697.5,666.8c0,1.4-0.2,2.4-0.6,3.1c-0.4,0.7-1,1-1.9,1c-0.8,0-1.5-0.3-1.9-1s-0.6-1.6-0.6-3v-1.6
					c0-1.4,0.2-2.4,0.6-3.1c0.4-0.7,1-1,1.9-1c0.8,0,1.5,0.3,1.9,1c0.4,0.6,0.6,1.6,0.6,2.9V666.8z M696.4,665.2
					c0-1-0.1-1.7-0.3-2.2s-0.6-0.7-1.1-0.7s-0.8,0.2-1,0.7s-0.3,1.2-0.3,2.1v1.9c0,1,0.1,1.7,0.3,2.2s0.6,0.7,1,0.7
					c0.5,0,0.8-0.2,1-0.7s0.3-1.2,0.3-2.1L696.4,665.2L696.4,665.2z"/>
				<path class="st16" d="M705.3,666.8c0,1.4-0.2,2.4-0.6,3.1c-0.4,0.7-1,1-1.9,1c-0.8,0-1.5-0.3-1.9-1s-0.6-1.6-0.6-3v-1.6
					c0-1.4,0.2-2.4,0.6-3.1c0.4-0.7,1-1,1.9-1c0.8,0,1.5,0.3,1.9,1c0.4,0.6,0.6,1.6,0.6,2.9V666.8z M704.2,665.2
					c0-1-0.1-1.7-0.3-2.2s-0.6-0.7-1.1-0.7s-0.8,0.2-1,0.7s-0.3,1.2-0.3,2.1v1.9c0,1,0.1,1.7,0.3,2.2s0.6,0.7,1,0.7
					c0.5,0,0.8-0.2,1-0.7s0.3-1.2,0.3-2.1L704.2,665.2L704.2,665.2z"/>
				<path class="st16" d="M718,662.4h-2.5v8.4h-1.2v-8.4h-2.5v-1h6.1L718,662.4L718,662.4z"/>
				<path class="st16" d="M726.3,662.4h-2.5v8.4h-1.2v-8.4h-2.5v-1h6.1L726.3,662.4L726.3,662.4z"/>
				<path class="st16" d="M734.6,662.4h-2.5v8.4h-1.2v-8.4h-2.5v-1h6.1L734.6,662.4L734.6,662.4z"/>
			</g>
		</g>
		<g id="Chip_print">
			<g>
				<g>
					<path class="st16" d="M706.9,606.7l-0.5-0.8c0-5.8-2.6-8-5.8-9.8c0.9-0.3,1.9-0.5,2.1-1.6c1.6-0.4,1.9-1.1,2.1-1.9
						c0.4-0.3,1.9-1.1,1.6-2.4c0.8-0.5,1.3-1.3,1-2.3c0.9-0.9,1.1-1.6,0.8-2.4c1-1.3,0.6-1.9,0.1-2.6c0.8-1.4,0.1-2.9-2-2.6
						c-0.9-1.3-2.6-1-3-1c-0.4-0.4-0.8-0.8-2-0.6c-0.9-0.8-1.8-0.6-2.8-0.3c-1.1-0.9-1.9-0.1-2.8,0.1c-1.4-0.5-1.8,0.1-2.4,0.4
						c-1.5-0.4-2,0.4-2.8,1.1h-0.9c-2.3,1.4-3.4,4-3.9,5.4c-0.4-1.4-1.5-4.1-3.9-5.4h-0.9c-0.8-0.8-1.1-1.4-2.8-1.1
						c-0.6-0.3-1-0.9-2.4-0.4c-0.6-0.1-1.1-0.5-1.8-0.5l0,0c-0.4,0-0.6,0.1-1.1,0.4c-1-0.4-1.9-0.5-2.8,0.3c-1.3-0.1-1.8,0.1-2,0.6
						c-0.3,0-2.1-0.3-3,1c-2.1-0.3-2.8,1.3-2,2.6c-0.4,0.6-0.9,1.3,0.1,2.6c-0.4,0.8-0.1,1.5,0.8,2.4c-0.3,1,0.3,1.6,1,2.3
						c-0.1,1.4,1.3,2.1,1.6,2.4c0.1,0.8,0.5,1.5,2.1,1.9c0.3,1.1,1.3,1.4,2.1,1.6c-3.1,1.8-5.8,4.1-5.8,9.8l-0.5,0.8
						c-3.5,2.1-6.8,8.9-1.8,14.5c0.4,1.8,0.9,3,1.4,4.4c0.8,5.5,5.5,8.1,6.8,8.5c1.9,1.4,3.8,2.6,6.4,3.6c2.5,2.5,5.1,3.5,7.9,3.5
						h0.1c2.8,0,5.4-1,7.9-3.5c2.6-0.9,4.6-2.3,6.4-3.6c1.3-0.3,6-2.9,6.8-8.5c0.5-1.4,1-2.6,1.4-4.4
						C713.7,615.6,710.5,608.8,706.9,606.7z M704.2,605.7c-0.1,2.3-12.2-8-10.2-8.4C699.7,596.4,704.4,599.7,704.2,605.7z
						 M698.9,617.1c-3,2-7.4,0.8-9.7-2.8c-2.4-3.5-1.8-7.9,1.3-9.9s7.4-0.8,9.7,2.8C702.5,610.8,701.9,615.2,698.9,617.1z
						 M690.6,581.6c0.1,0.5,0.3,0.9,0.4,0.9c0.6-0.8,1.3-1.5,2-2.1c0,0.4-0.3,0.9,0.3,1.1c0.5-0.6,1.1-1.1,1.9-1.6
						c-0.4,0.6-0.1,0.9,0.1,1.1c0.6-0.5,1.3-1.1,2.4-1.5c-0.4,0.4-0.8,0.8-0.3,1.3c0.6-0.4,1.3-0.8,2.9-1.1
						c-0.4,0.4-1.1,0.8-0.6,1.1c0.9-0.3,1.8-0.5,2.8-0.6c-0.5,0.4-0.9,0.8-0.5,1.1c0.9-0.3,2.1-0.6,3.3-0.4l-0.8,0.8
						c-0.1,0.1,1.8,0.1,2.9,0.1c-0.4,0.6-0.9,1.3-1.1,2.3c0.1,0.1,0.8,0,1.3,0c-0.6,1.3-1.6,1.5-1.8,2c0.4,0.3,0.9,0.3,1.4,0
						c-0.4,0.9-1.3,1.4-2,2.1c0.1,0.1,0.5,0.3,1.3,0.1c-0.6,0.6-1.4,1.3-2.3,1.9c0.1,0.1,0.8,0.1,1.3,0.3c-0.9,0.8-1.9,1.3-2.9,1.8
						c0.5,0.4,0.9,0.3,1.3,0.3c-0.8,0.6-1.9,0.9-3,1.3c0.3,0.4,0.4,0.4,0.9,0.5c-1.1,0.6-2.9,0.4-3.4,0.6c0.1,0.4,0.4,0.5,0.9,0.8
						c-1.9,0.1-7-0.1-8-4c1.9-2.1,5.5-4.6,11.5-7.6c-4.8,1.6-9,3.6-12.5,6.6C685.6,588.5,688.5,583.6,690.6,581.6z M686.3,595.8
						L686.3,595.8c3,0,6.6,2.1,6.6,4.3c0,1.9-2.6,3.4-6.6,3.3c-4,0-6.6-1.9-6.6-3.6C679.7,598.2,682.9,595.7,686.3,595.8z
						 M671.2,594.2c0.5-0.1,0.6-0.1,0.9-0.5c-1.1-0.4-2.3-0.6-3-1.3c0.4,0,0.8,0.1,1.3-0.3c-1-0.5-2-1-2.9-1.8c0.5,0,1.1,0,1.3-0.3
						c-0.9-0.5-1.6-1.1-2.3-1.9c0.8,0.1,1,0,1.3-0.1c-0.6-0.8-1.5-1.3-2-2.1c0.5,0.1,1,0.3,1.4,0c-0.3-0.5-1.3-0.9-1.8-2
						c0.5,0,1.1,0.1,1.3,0c-0.3-1-0.8-1.6-1.1-2.3c1.3,0,3,0,2.9-0.1l-0.8-0.8c1.1-0.3,2.4,0,3.3,0.4c0.4-0.3,0-0.6-0.5-1.1
						c1,0.1,1.9,0.4,2.8,0.6c0.4-0.4-0.3-0.8-0.6-1.1c1.5,0.3,2.3,0.8,2.9,1.1c0.5-0.5,0-0.9-0.3-1.3c1.1,0.4,1.8,1,2.4,1.5
						c0.3-0.3,0.5-0.5,0.1-1.1c0.9,0.5,1.5,1,1.9,1.6c0.5-0.4,0.3-0.8,0.3-1.1c0.9,0.6,1.4,1.4,2,2.1c0.1-0.1,0.3-0.4,0.4-0.9
						c2,2,4.9,6.9,0.8,8.8c-3.5-2.9-7.8-5-12.5-6.6c6,3.1,9.7,5.5,11.5,7.6c-1,3.9-6.1,4.1-8,4c0.4-0.1,0.8-0.4,0.9-0.8
						C674,594.5,672.4,594.8,671.2,594.2z M678.6,597.2c2.1,0.4-9.9,10.7-10.2,8.4C668.3,599.5,672.9,596.3,678.6,597.2z
						 M665.9,620.1c-2.9-2.3-3.9-9,1.5-12.2C670.7,607.2,668.5,621.4,665.9,620.1z M677,632.3c-1.6,1-5.6,0.6-8.5-3.4
						c-1.9-3.4-1.6-6.8-0.4-7.8c2-1.3,5.1,0.4,7.5,3.1C677.8,626.6,678.8,631,677,632.3z M673.8,617.5c-3-2-3.5-6.4-1.3-9.9
						c2.4-3.5,6.6-4.8,9.7-2.8s3.5,6.4,1.3,9.9C681.2,618.2,676.8,619.5,673.8,617.5z M686.3,639.2c-3.6,0.1-7.1-2.9-7.1-4
						c0-1.5,4.4-2.8,7.3-2.8c2.9-0.1,6.9,0.9,6.9,2.4C693.5,636.1,689.8,639.2,686.3,639.2z M693.6,623.7c0,3.6-3.3,6.6-7.3,6.6
						s-7.3-2.9-7.3-6.6c0,0,0,0,0-0.1c0-3.6,3.3-6.6,7.3-6.6C690.3,617.1,693.6,620,693.6,623.7L693.6,623.7z M703.7,629
						c-3.1,4.3-7.3,4.4-8.9,3.3c-1.6-1.5-0.4-6.3,1.9-8.9l0,0c2.6-2.9,5.4-4.8,7.3-3.3C705.3,621.4,706,626.1,703.7,629z M706.5,620
						c-2.6,1.1-4.8-12.9-1.5-12.2C710.4,611,709.5,617.7,706.5,620z"/>
				</g>
			</g>
		</g>
	</g>
	<g>
		<path class="st17" d="M1205.6,772.7h443.7v317.4h-443.7L1205.6,772.7L1205.6,772.7z M1561.8,827.9c11.2,0,20.2-9.1,20.2-20.2
			c0-11.2-9.1-20.2-20.2-20.2s-20.2,9.1-20.2,20.2C1541.6,818.8,1550.7,827.9,1561.8,827.9z M1323.8,827.9
			c11.2,0,20.2-9.1,20.2-20.2c0-11.2-9.1-20.2-20.2-20.2s-20.2,9.1-20.2,20.2C1303.6,818.8,1312.6,827.9,1323.8,827.9z"/>
		<rect x="1363.6" y="841.8" class="st18" width="214.8" height="209.9"/>
		<rect x="1223.7" y="834.3" class="st18" width="45" height="218.3"/>
		<path class="st19" d="M1237.3,1008.5h17.9c7,0,12.7,5.7,12.7,12.7v17.9c0,7-5.7,12.7-12.7,12.7h-17.9c-7,0-12.7-5.7-12.7-12.7
			v-17.9C1224.6,1014.2,1230.3,1008.5,1237.3,1008.5z"/>
		<rect x="1119.3" y="1025" class="st20" width="131.4" height="10.3"/>
		<path class="st19" d="M1237.3,965.3h17.9c7,0,12.7,5.7,12.7,12.7v17.9c0,7-5.7,12.7-12.7,12.7h-17.9c-7,0-12.7-5.7-12.7-12.7V978
			C1224.6,971,1230.3,965.3,1237.3,965.3z"/>
		<rect x="1119.3" y="981.7" class="st20" width="131.4" height="10.3"/>
		<path class="st19" d="M1237.3,922.1h17.9c7,0,12.7,5.7,12.7,12.7v17.9c0,7-5.7,12.7-12.7,12.7h-17.9c-7,0-12.7-5.7-12.7-12.7
			v-17.9C1224.6,927.7,1230.3,922.1,1237.3,922.1z"/>
		<rect x="1119.3" y="938.5" class="st20" width="131.4" height="10.3"/>
		<path class="st19" d="M1237.3,878.8h17.9c7,0,12.7,5.7,12.7,12.7v17.9c0,7-5.7,12.7-12.7,12.7h-17.9c-7,0-12.7-5.7-12.7-12.7
			v-17.9C1224.6,884.5,1230.3,878.8,1237.3,878.8z"/>
		<rect x="1119.3" y="895.3" class="st20" width="131.4" height="10.3"/>
		<path class="st19" d="M1237.3,835.6h17.9c7,0,12.7,5.7,12.7,12.7v17.9c0,7-5.7,12.7-12.7,12.7h-17.9c-7,0-12.7-5.7-12.7-12.7
			v-17.9C1224.6,841.3,1230.3,835.6,1237.3,835.6z"/>
		<rect x="1119.3" y="852" class="st20" width="131.4" height="10.3"/>
		<path class="st20" d="M1582.1,987.1c0-8.1,6.6-14.7,14.7-14.7s14.7,6.6,14.7,14.7s-6.6,14.7-14.7,14.7S1582.1,995.2,1582.1,987.1z
			 M1596.8,996.4c5.2,0,9.3-4.2,9.3-9.3s-4.2-9.3-9.3-9.3c-5.2,0-9.3,4.2-9.3,9.3S1591.6,996.4,1596.8,996.4z"/>
		<path class="st20" d="M1331.8,987.1c0-8.1,6.6-14.7,14.7-14.7s14.7,6.6,14.7,14.7s-6.6,14.7-14.7,14.7S1331.8,995.2,1331.8,987.1z
			 M1346.5,996.4c5.2,0,9.3-4.2,9.3-9.3s-4.2-9.3-9.3-9.3c-5.2,0-9.3,4.2-9.3,9.3S1341.4,996.4,1346.5,996.4z"/>
		<rect x="1571.1" y="974.9" class="st20" width="26.9" height="25.4"/>
		<rect x="1344" y="974.9" class="st20" width="26.9" height="25.4"/>
		<path class="st20" d="M1582.1,946.1c0-8.1,6.6-14.7,14.7-14.7s14.7,6.6,14.7,14.7c0,8.1-6.6,14.7-14.7,14.7
			C1588.7,960.9,1582.1,954.3,1582.1,946.1z M1596.8,955.5c5.2,0,9.3-4.2,9.3-9.3c0-5.2-4.2-9.3-9.3-9.3c-5.2,0-9.3,4.2-9.3,9.3
			S1591.6,955.5,1596.8,955.5z"/>
		<rect x="1571.1" y="934" class="st20" width="26.9" height="25.4"/>
		<path class="st20" d="M1582.1,905.2c0-8.1,6.6-14.7,14.7-14.7s14.7,6.6,14.7,14.7s-6.6,14.7-14.7,14.7S1582.1,913.3,1582.1,905.2z
			 M1596.8,914.5c5.2,0,9.3-4.2,9.3-9.3s-4.2-9.3-9.3-9.3c-5.2,0-9.3,4.2-9.3,9.3S1591.6,914.5,1596.8,914.5z"/>
		<path class="st20" d="M1331.8,905.2c0-8.1,6.6-14.7,14.7-14.7s14.7,6.6,14.7,14.7s-6.6,14.7-14.7,14.7S1331.8,913.3,1331.8,905.2z
			 M1346.5,914.5c5.2,0,9.3-4.2,9.3-9.3s-4.2-9.3-9.3-9.3c-5.2,0-9.3,4.2-9.3,9.3S1341.4,914.5,1346.5,914.5z"/>
		<rect x="1571.1" y="893" class="st20" width="26.9" height="25.4"/>
		<rect x="1344" y="893" class="st20" width="26.9" height="25.4"/>
		<circle class="st18" cx="1561.2" cy="807.6" r="32.7"/>
		<circle class="st18" cx="1323.8" cy="807.6" r="32.7"/>
		<path class="st21" d="M1388.7,847.1h164.9c10.5,0,19,8.5,19,19v162c0,10.5-8.5,19-19,19h-164.9c-10.5,0-19-8.5-19-19v-162
			C1369.7,855.6,1378.2,847.1,1388.7,847.1z"/>
		<circle class="st22" cx="1471.1" cy="946.6" r="59.3"/>
		<path class="st23" d="M1494,1014.6v32.5h-45.8v-32.5l0,0c-28.4-9.5-48.8-36.4-48.8-67.9c0-31.6,20.4-58.4,48.7-67.9l0,0v-31.6
			h45.8v31.7h0.3c28.2,9.6,48.5,36.4,48.5,67.8C1542.8,978.2,1522.4,1005,1494,1014.6L1494,1014.6z"/>
		
			<linearGradient id="SVGID_1_" gradientUnits="userSpaceOnUse" x1="2266.5305" y1="-245.9382" x2="2312.896" y2="-165.6307" gradientTransform="matrix(-1 0 0 1 3758.3777 1156.7498)">
			<stop  offset="0" style="stop-color:#FCFCFC"/>
			<stop  offset="1" style="stop-color:#ADADAD"/>
		</linearGradient>
		<path class="st24" d="M1465.5,895.6c-25.7,2.8-45.7,24.6-45.7,51c0,28.4,23,51.4,51.4,51.4c21.2,0,39.4-12.8,47.2-31.2
			L1465.5,895.6z"/>
		<path class="st25" d="M1472.2,904.5c-0.4,0-0.7,0-1.1,0c-23.3,0-42.2,18.9-42.2,42.2s18.9,42.2,42.2,42.2
			c19.4,0,35.7-13.1,40.7-30.9L1472.2,904.5z"/>
		<g>
			<path class="st21" d="M1518,966.3l0.4,0.5c2.7-6.2,4.1-13,4.1-20.2c0-28.4-23-51.4-51.4-51.4c-1.8,0-3.7,0.1-5.5,0.3L1518,966.3z
				"/>
			<path class="st21" d="M1465.5,895.6l52.5,70.7l-52.3-70.7C1465.6,895.6,1465.5,895.6,1465.5,895.6z"/>
			<line class="st26" x1="1518" y1="966.3" x2="1465.7" y2="895.6"/>
			<line class="st26" x1="1518.4" y1="966.8" x2="1518" y2="966.3"/>
			<line class="st26" x1="1465.4" y1="895.3" x2="1465.7" y2="895.6"/>
		</g>
		<g>
			<path class="st13" d="M1294.2,1034.6c-0.7,3.3-3.2,5.1-6.2,5.1c-2.8,0-4.7-1.7-5.6-3.2c-0.6-1.1-0.8-1.6-0.8-5.8
				c0-4.3,0.2-4.8,0.8-5.8c0.8-1.5,2.8-3.2,5.6-3.2c3.4,0,5.7,2.4,6.2,5.3h-2.8c-0.4-1.4-1.7-2.6-3.4-2.6c-1.3,0-2.2,0.6-2.7,1.3
				c-0.7,0.9-0.9,1.4-0.9,5c0,3.7,0.2,4.1,0.9,5c0.5,0.7,1.5,1.3,2.7,1.3c1.5,0,2.6-0.8,3.4-2.4H1294.2z"/>
			<path class="st13" d="M1296.1,1021.8h2.7v15.2h8.7v2.5h-11.4L1296.1,1021.8L1296.1,1021.8z"/>
			<path class="st13" d="M1310,1021.8h2.7v9.2l0,0l7.3-9.2h3.2l-5.7,7l6.3,10.8h-3.2l-4.8-8.7l-3.1,3.3v5.4h-2.7L1310,1021.8
				L1310,1021.8z"/>
		</g>
		<g>
			<path class="st13" d="M1281.6,977.8h6.2c2.3,0,4.3,1,5.4,3c0.9,1.5,1,2.2,1,5.9c0,4-0.2,4.7-1,5.9c-1.1,1.6-2.9,2.9-5.5,2.9h-6
				L1281.6,977.8L1281.6,977.8z M1284.3,993.1h3.2c1.5,0,2.6-0.5,3.3-1.6c0.6-0.9,0.7-1.4,0.7-4.7c0-3.2-0.1-4-0.8-4.9
				c-0.8-1.1-1.7-1.5-3.2-1.5h-3.2V993.1z"/>
			<path class="st13" d="M1300.4,980.2h-4.9v-2.4h12.4v2.4h-4.9v15.4h-2.7L1300.4,980.2L1300.4,980.2z"/>
		</g>
		<g>
			<path class="st13" d="M1283.6,947.3c1.3,1.1,3.1,1.8,5,1.8c2.2,0,3.5-1,3.5-2.5c0-1.3-0.7-2.2-2.3-2.4c-0.8-0.1-1.4-0.2-2.3-0.3
				c-3.1-0.4-4.7-2.4-4.7-5c0-3,2.1-5.2,5.8-5.2c2.2,0,4.1,0.8,5.8,1.8l-1.5,2.2c-1.3-0.8-2.8-1.4-4.4-1.4s-3,0.8-3,2.5
				c0,1,0.7,2,2.5,2.3c0.5,0.1,1.1,0.2,2,0.3c3.3,0.4,4.9,2.7,4.9,5.1c0,3.3-2.4,5.2-6.2,5.2c-2.6,0-4.9-0.8-6.8-2.4L1283.6,947.3z"
				/>
			<path class="st13" d="M1296.2,933.8h2.8l2.8,12.6h0.1l3.4-12.6h1.9l3.4,12.6h0.1l2.8-12.6h2.8l-4.4,17.8h-2.3l-3.4-12.8h-0.1
				l-3.4,12.8h-2.3L1296.2,933.8z"/>
		</g>
		<path class="st13" d="M1290.1,902.5h-1.9v-5.3h-5.3v-2h5.3v-5.3h1.9v5.3h5.3v2h-5.3V902.5z"/>
		<g>
			<path class="st13" d="M1289.2,853.8h6.3v3.6c0,3.5-2.8,6.3-6.3,6.3c-2.8,0-4.7-1.7-5.6-3.2c-0.6-1.1-0.8-1.6-0.8-5.8
				c0-4.3,0.2-4.8,0.8-5.8c0.9-1.5,2.8-3.2,5.6-3.2c3.4,0,5.7,2.4,6.2,5.3h-2.8c-0.4-1.4-1.7-2.6-3.4-2.6c-1.3,0-2.2,0.6-2.7,1.3
				c-0.7,0.9-0.9,1.4-0.9,5c0,3.7,0.2,4.1,0.9,5c0.5,0.7,1.5,1.3,2.7,1.3c2.1,0,3.7-1.6,3.7-3.8v-0.9h-3.6L1289.2,853.8
				L1289.2,853.8z"/>
			<path class="st13" d="M1298.7,845.8h2.5l8,12.6l0,0v-12.6h2.7v17.8h-2.5l-8-12.6l0,0v12.6h-2.7V845.8z"/>
			<path class="st13" d="M1315.8,845.8h6.2c2.3,0,4.3,1,5.4,3c0.9,1.5,1,2.2,1,5.9c0,4-0.2,4.7-1,5.9c-1.1,1.6-2.9,2.9-5.5,2.9h-6
				L1315.8,845.8L1315.8,845.8z M1318.5,861.1h3.2c1.5,0,2.6-0.5,3.3-1.6c0.6-0.9,0.7-1.4,0.7-4.7c0-3.2-0.1-4-0.8-4.9
				c-0.8-1.1-1.7-1.5-3.2-1.5h-3.2V861.1z"/>
		</g>
	</g>
	<g>
		<polyline class="st27" points="1120.2,586.5 1196.5,586.5 1227.2,606.2 		"/>
		<polyline class="st27" points="1120.2,654.7 1196.5,654.7 1227.2,635.1 		"/>
		<path class="st28" d="M1233.5,653.1c0,0-10.8-3.7-14.2-3.1c-3.4,0.6-13.3,4.7-15.7,0.3s5.2-8.8,7.1-11.9c0.8-1.2,1.7-4.5,2.5-7.8
			c1.5-6.5,1.5-13.3,0-19.8c-0.8-3.3-1.7-6.6-2.5-7.8c-1.9-3-9.5-7.4-7.1-11.9s12.3-0.3,15.7,0.3c3.4,0.6,14-3,14-3l0,0
			c6.4-4,14.1-6.1,22.3-5.6c19.3,1.2,34.8,17,35.5,36.3c0.9,21.7-16.4,39.5-37.9,39.5C1246.1,658.6,1239.2,656.5,1233.5,653.1
			L1233.5,653.1z"/>
		<g class="st29">
			<path d="M1261,599l-2.7-3.7h4l2.7,3.7v3.8h-26.2V599H1261z"/>
			<path d="M1257.7,611c4.8,0,7.5,3.6,7.5,7.4s-2.7,7.4-7.5,7.4h-11.6c-4.8,0-7.5-3.6-7.5-7.4s2.7-7.4,7.5-7.4H1257.7z
				 M1257.5,622.1c2.5,0,4-1.5,4-3.7c0-2.2-1.5-3.7-4-3.7h-11.1c-2.5,0-4,1.5-4,3.7c0,2.2,1.5,3.7,4,3.7H1257.5z"/>
			<path d="M1246.2,627.7l18.8,8.8v4.2l-18.8-8.9v6.8h7.5v3.8h-7.5v2.1h-3.5v-2.1h-3.9v-3.8h3.9v-10.9H1246.2z"/>
		</g>
	</g>
	<path d="M122.8,449.7"/>
	<path class="st30" d="M534.6,208.9h-49.2c-20.7,0-37.4,16.8-37.4,37.4v240.6c0,20.7-16.8,37.4-37.4,37.4H97.3
		c-20.7,0-37.4-16.8-37.4-37.4V237.7"/>
	<g>
		<polyline class="st27" points="144.8,142.3 144.8,174.7 122.8,207 122.8,266 		"/>
		<polyline class="st27" points="251.5,237.7 251.5,211.4 187.2,166.6 187.2,139.4 		"/>
		<path class="st31" d="M111.8,155.2V65.4c0-24.1,19.6-43.7,43.7-43.7l0,0c24.1,0,43.7,19.6,43.7,43.7v67.5"/>
		<path class="st31" d="M199.2,132.9c0,10.4-19.6,18.8-43.7,18.8s-43.7-8.4-43.7-18.8"/>
		<path class="st31" d="M199.2,116.9c4.9,4.1,7.7,9,7.7,14.2c0,15-23.4,27.2-52.3,27.2c-17.6,0-33.2-4.5-42.7-11.4"/>
		<path class="st31" d="M206.8,139.4c0,15-23.4,27.2-52.3,27.2c-17.6,0-33.2-4.5-42.7-11.4"/>
		<line class="st31" x1="206.8" y1="131" x2="206.8" y2="139.4"/>
		<polygon class="st32" points="129.7,76.7 129.7,88.4 137.2,97.5 137.2,106.4 127.8,116.9 127.8,126.5 138.7,126.5 138.7,118.9 
			148.2,108.9 148.2,92.7 156.2,92.7 165.7,84.2 165.7,76.7 		"/>
		<polygon class="st32" points="171.2,76.7 171.2,84.4 161.5,93.7 161.5,109.5 171.2,119.5 171.2,126.5 182,126.5 182,117.7 
			171.8,105.5 171.8,96.5 180.2,87.2 180,76.7 		"/>
		<polyline class="st27" points="59.8,237.7 59.8,210.4 124.8,168.4 124.8,139.4 		"/>
		<polyline class="st27" points="187.2,240 187.2,206.7 167.5,172.7 167.5,142.3 		"/>
	</g>
	<path class="st33" d="M534.6,338.5H216.5c-16.2,0-29.3-13.1-29.3-29.3V240"/>
	<path class="st34" d="M534.6,381.7H283.5c-17.7,0-32-14.3-32-32v-112"/>
	<path class="st35" d="M534.6,727.3H153c-16.6,0-30.1-13.5-30.1-30.1V449.7"/>
	<g>
		<path class="st36" d="M122.8,449.7h7.7c0,0,0-5.3,0-9c0-2.6,22.8-7.6,22.8-26.3c0-21.7-7.5-25.7-7.2-35s0-24.5,0-24.5
			s0.3-15.2,0-24.5s7.2-13.3,7.2-35c0-18.7-22.8-23.7-22.8-26.3c0-3.7,0-9,0-9h-7.7h-7.7c0,0,0,5.3,0,9c0,2.6-22.8,7.6-22.8,26.3
			c0,21.7,7.5,25.7,7.2,35s0,24.5,0,24.5s-0.3,15.2,0,24.5s-7.2,13.3-7.2,35c0,18.7,22.8,23.7,22.8,26.3c0,3.7,0,9,0,9H122.8z"/>
		<g>
			<path class="st1" d="M147.1,385.5H98.6c-1.3,4.3-3.8,8.6-5.2,16.3h59C150.9,394.1,148.4,389.8,147.1,385.5z"/>
			<path class="st1" d="M92.7,418.2c2.8,15.6,22.5,20.1,22.5,22.5c0,3.7,0,9,0,9h7.7h7.7c0,0,0-5.3,0-9c0-2.4,19.7-6.9,22.5-22.5
				H92.7z"/>
			<path class="st1" d="M146.2,330.4c-0.3-8.6,6-12.7,7-30.2H92.5c1,17.5,7.3,21.6,7,30.2c-0.1,1.6-0.1,3.5-0.1,5.3h46.9
				C146.3,333.8,146.2,332,146.2,330.4z"/>
			<path class="st1" d="M130.5,269c0-3.7,0-9,0-9h-7.7h-7.7c0,0,0,5.3,0,9c0,2.5-20.8,7.2-22.7,23.8h60.7
				C151.3,276.2,130.5,271.5,130.5,269z"/>
			<path class="st1" d="M146.2,354.9c0,0,0-1.1,0.1-2.8H99.5c0,1.8,0.1,2.8,0.1,2.8s-0.2,6.9-0.1,14.3h47
				C146.3,361.8,146.2,354.9,146.2,354.9z"/>
			
				<linearGradient id="SVGID_2_" gradientUnits="userSpaceOnUse" x1="87.3499" y1="838.5681" x2="158.0166" y2="838.5681" gradientTransform="matrix(1 0 0 -1 0 1135.1182)">
				<stop  offset="0" style="stop-color:#F8EB00"/>
				<stop  offset="1" style="stop-color:#E68A00"/>
			</linearGradient>
			<path class="st37" d="M153.3,295.4c0-0.9-0.1-1.7-0.2-2.5H92.5c-0.1,0.8-0.2,1.6-0.2,2.5c0,1.7,0.1,3.3,0.1,4.8h60.7
				C153.3,298.7,153.3,297.1,153.3,295.4z"/>
			<path class="st38" d="M146.3,335.7H99.4c-0.1,6,0,12.7,0.1,16.3h46.8C146.3,348.3,146.4,341.7,146.3,335.7z"/>
			<path class="st39" d="M146.2,379.4c0.1-3,0.1-6.6,0.1-10.2h-47c0,3.5,0,7.2,0.1,10.2c0.1,2.3-0.3,4.2-0.9,6.2H147
				C146.5,383.6,146.1,381.6,146.2,379.4z"/>
			<path class="st39" d="M153.3,414.4c0-5-0.4-9.1-1-12.5h-59c-0.6,3.4-1,7.5-1,12.5c0,1.3,0.1,2.6,0.4,3.8H153
				C153.2,417,153.3,415.7,153.3,414.4z"/>
		</g>
	</g>
	<line class="st40" x1="837.1" y1="1029.7" x2="1119.2" y2="1029.7"/>
	<line class="st41" x1="837.1" y1="986.5" x2="1119.2" y2="986.5"/>
	<path class="st35" d="M837.1,943.3h85.7c13.9,0,25.1-11.2,25.1-25.1v-35c0-14.3,11.6-25.9,25.9-25.9h145.4"/>
	<path class="st42" d="M1119.2,943.7H1009c-11.6,0-21-9.4-21-21v-1.6c0-11.6-9.4-21-21-21H837.1h35.7c18.1,0,32.7-14.6,32.7-32.7
		V685.5c0-17,13.8-30.7,30.7-30.7h183.9"/>
	<path class="st43" d="M1119.2,900.4h-71.3c-15.4,0-28-12.5-28-28V409.7c0-15.4-12.5-28-28-28H837.1h33.6
		c15.6,0,28.2,12.6,28.2,28.2v151c0,14.5,11.7,26.2,26.2,26.2h195"/>
	<g class="st29">
		<path d="M254,40.6h9.2c2,0,3.5,0.5,4.8,1.6c1.3,1.1,2.3,2.9,2.3,5c0,3-1.7,5.5-4.6,6.5l5.4,10.4H267l-4.9-10h-4.6v10H254V40.6z
			 M257.6,50.9h5.4c2.7,0,4-1.7,4-3.7c0-1.2-0.5-2.1-1.2-2.7c-0.7-0.5-1.4-0.7-2.6-0.7h-5.6V50.9z"/>
		<path d="M281.7,51.2h8.4V56c0,4.7-3.7,8.4-8.4,8.4c-3.7,0-6.2-2.2-7.4-4.2c-0.8-1.4-1-2.1-1-7.7c0-5.6,0.3-6.3,1-7.7
			c1.1-2,3.7-4.2,7.4-4.2c4.5,0,7.5,3.1,8.3,7h-3.8c-0.6-1.8-2.2-3.4-4.5-3.4c-1.7,0-2.9,0.8-3.6,1.7c-0.9,1.2-1.2,1.8-1.2,6.7
			c0,4.8,0.3,5.5,1.2,6.7c0.7,0.9,1.9,1.7,3.6,1.7c2.7,0,4.8-2,4.8-5v-1.2h-4.8V51.2z"/>
		<path d="M294.3,40.6h9.1c4.6,0,7,2.6,7,6.3c0,1.9-0.7,3.8-3.5,5V52c2.6,0.6,3.8,3,3.8,5.4c0,4.1-3,6.7-6.5,6.7h-9.9V40.6z
			 M297.8,43.8v6.7h5.1c2.6,0,3.8-1.5,3.8-3.4c0-1.8-1.2-3.4-3.8-3.4H297.8z M297.8,53.7v7.1h5.5c2.6,0,3.8-1.7,3.8-3.5
			c0-1.8-1.2-3.5-3.8-3.5H297.8z"/>
		<path d="M322.3,40.6h3.6v20.1h11.5v3.4h-15V40.6z"/>
		<path d="M340.6,40.6h15V44h-11.5v6.7h9.8v3.2h-9.8v6.9h11.5v3.4h-15V40.6z"/>
		<path d="M359,40.6h8.2c3.1,0,5.6,1.4,7.2,4c1.2,2,1.3,2.9,1.3,7.8c0,5.3-0.3,6.2-1.3,7.9c-1.4,2.2-3.8,3.9-7.3,3.9h-8V40.6z
			 M362.6,60.7h4.3c2,0,3.4-0.7,4.4-2c0.8-1.2,0.9-1.8,0.9-6.2c0-4.2-0.1-5.2-1.1-6.5c-1.1-1.5-2.3-2-4.2-2h-4.3V60.7z"/>
	</g>
	<g class="st29">
		<path d="M258.7,101.5c-3.5-3.9-5.2-8.9-5.2-13.4s1.7-9.6,5.2-13.4h1.3c-2,4.2-3.2,8.6-3.2,13.4c0,4.8,1.2,9.3,3.2,13.4H258.7z"/>
		<path d="M279,91.5c-0.9,4.4-4.2,6.8-8.3,6.8c-3.7,0-6.2-2.2-7.4-4.2c-0.8-1.4-1-2.1-1-7.7c0-5.6,0.3-6.3,1-7.7
			c1.1-2,3.7-4.2,7.4-4.2c4.5,0,7.5,3.1,8.3,7h-3.8c-0.6-1.8-2.2-3.4-4.5-3.4c-1.7,0-2.9,0.8-3.6,1.7c-0.9,1.2-1.2,1.8-1.2,6.7
			c0,4.8,0.3,5.5,1.2,6.7c0.7,0.9,1.9,1.7,3.6,1.7c2,0,3.5-1.1,4.5-3.2H279z"/>
		<path d="M282.2,83.3c0.9-1,2.5-2.1,5.1-2.1c2.6,0,4.2,1.1,5.1,2.1c1.3,1.4,1.8,2.8,1.8,6.4c0,3.6-0.5,5-1.8,6.4
			c-0.9,1-2.5,2.1-5.1,2.1c-2.6,0-4.2-1.1-5.1-2.1c-1.3-1.4-1.8-2.8-1.8-6.4C280.4,86.1,280.9,84.7,282.2,83.3z M290,85.8
			c-0.5-0.7-1.6-1.2-2.7-1.2c-1.2,0-2.2,0.5-2.7,1.2c-0.6,0.9-0.8,1.6-0.8,4c0,2.4,0.2,3.1,0.8,4c0.5,0.7,1.6,1.2,2.7,1.2
			c1.2,0,2.2-0.5,2.7-1.2c0.6-0.9,0.8-1.6,0.8-4C290.8,87.3,290.6,86.7,290,85.8z"/>
		<path d="M297.9,81.4h3.4v1.8h0.1c1.1-1.3,2.6-2,4.4-2c2.3,0,3.5,1,4.7,2.2c1.4-1.5,3-2.2,5.3-2.2c2.6,0,5.6,2,5.6,5.8v11.1h-3.4
			v-10c0-2.3-1.4-3.6-3.3-3.6c-1.9,0-3.3,1.3-3.3,3.6v10h-3.4v-10c0-2.3-1.4-3.6-3.3-3.6c-1.9,0-3.3,1.3-3.3,3.6v10h-3.4V81.4z"/>
		<path d="M326,81.4h3.4v1.8h0.1c1.1-1.3,2.6-2,4.4-2c2.3,0,3.5,1,4.7,2.2c1.4-1.5,3-2.2,5.3-2.2c2.6,0,5.6,2,5.6,5.8v11.1H346v-10
			c0-2.3-1.4-3.6-3.3-3.6c-1.9,0-3.3,1.3-3.3,3.6v10H336v-10c0-2.3-1.4-3.6-3.3-3.6c-1.9,0-3.3,1.3-3.3,3.6v10H326V81.4z"/>
		<path d="M354.9,83.3c0.9-1,2.5-2.1,5.1-2.1c2.6,0,4.2,1.1,5.1,2.1c1.3,1.4,1.8,2.8,1.8,6.4c0,3.6-0.5,5-1.8,6.4
			c-0.9,1-2.5,2.1-5.1,2.1c-2.6,0-4.2-1.1-5.1-2.1c-1.3-1.4-1.8-2.8-1.8-6.4C353.1,86.1,353.7,84.7,354.9,83.3z M362.7,85.8
			c-0.5-0.7-1.6-1.2-2.7-1.2c-1.2,0-2.2,0.5-2.7,1.2c-0.6,0.9-0.8,1.6-0.8,4c0,2.4,0.2,3.1,0.8,4c0.5,0.7,1.6,1.2,2.7,1.2
			c1.2,0,2.2-0.5,2.7-1.2c0.6-0.9,0.8-1.6,0.8-4C363.6,87.3,363.4,86.7,362.7,85.8z"/>
		<path d="M370.4,81.4h3.4v1.8h0.1c1.1-1.3,2.6-2,4.4-2c2.6,0,5.6,2,5.6,5.8v11.1h-3.4v-10c0-2.3-1.4-3.6-3.3-3.6
			c-1.9,0-3.3,1.3-3.3,3.6v10h-3.4V81.4z"/>
		<path d="M412.2,91.5c-0.9,4.4-4.2,6.8-8.3,6.8c-3.7,0-6.2-2.2-7.4-4.2c-0.8-1.4-1-2.1-1-7.7c0-5.6,0.3-6.3,1-7.7
			c1.1-2,3.7-4.2,7.4-4.2c4.5,0,7.5,3.1,8.3,7h-3.8c-0.6-1.8-2.2-3.4-4.5-3.4c-1.7,0-2.9,0.8-3.6,1.7c-0.9,1.2-1.2,1.8-1.2,6.7
			c0,4.8,0.3,5.5,1.2,6.7c0.7,0.9,1.9,1.7,3.6,1.7c2,0,3.5-1.1,4.5-3.2H412.2z"/>
		<path d="M423.2,96.6L423.2,96.6c-0.8,1.2-1.9,1.7-4.2,1.7c-3.7,0-5.9-2.2-5.9-5.1c0-2.7,1.8-5,5.4-5h4.7v-1.7c0-1.6-1-2.1-3.4-2.1
			c-1.8,0-2.6,0.3-3.2,1.3l-2.6-2c1.3-1.8,3.1-2.4,5.6-2.4c4.1,0,7,1.4,7,5.5v11.4h-3.4V96.6z M423.2,91h-4c-2,0-2.9,0.8-2.9,2
			c0,1.1,0.9,2.1,3.2,2.1c2.8,0,3.8-0.3,3.8-2.9V91z"/>
		<path d="M431.1,76.3h3.4v5.1h2.4V84h-2.4v9.7c0,0.9,0.4,1.3,1.2,1.3h1.3v3.2h-1.8c-2.3,0-4.1-1.5-4.1-4.1V84h-1.7v-2.6h1.7V76.3z"
			/>
		<path d="M440.1,74.6h3.4v8.5h0.1c1.1-1.3,2.6-2,4.4-2c2.6,0,5.6,2,5.6,5.8v11.1h-3.4v-10c0-2.3-1.4-3.6-3.3-3.6
			c-1.9,0-3.3,1.3-3.3,3.6v10h-3.4V74.6z"/>
		<path d="M458.8,83.3c0.9-1,2.5-2.1,5.1-2.1s4.2,1.1,5.1,2.1c1.3,1.4,1.8,2.8,1.8,6.4c0,3.6-0.5,5-1.8,6.4c-0.9,1-2.5,2.1-5.1,2.1
			s-4.2-1.1-5.1-2.1c-1.3-1.4-1.8-2.8-1.8-6.4C457,86.1,457.5,84.7,458.8,83.3z M466.6,85.8c-0.5-0.7-1.6-1.2-2.7-1.2
			s-2.2,0.5-2.7,1.2c-0.6,0.9-0.8,1.6-0.8,4c0,2.4,0.2,3.1,0.8,4c0.5,0.7,1.6,1.2,2.7,1.2s2.2-0.5,2.7-1.2c0.6-0.9,0.8-1.6,0.8-4
			C467.4,87.3,467.2,86.7,466.6,85.8z"/>
		<path d="M484.3,96.4c-1.1,1.2-2.6,1.9-4.3,1.9c-2,0-3.5-0.9-4.5-2.2c-0.9-1.2-1.2-2.3-1.2-6.4c0-4.1,0.3-5.2,1.2-6.4
			c1-1.3,2.4-2.2,4.5-2.2c1.7,0,3.1,0.8,4.3,2v-8.5h3.4v23.5h-3.4V96.4z M477.7,89.7c0,2.6,0.2,5.2,3.3,5.2c3.1,0,3.3-2.8,3.3-5.2
			c0-2.4-0.2-5.2-3.3-5.2C477.9,84.5,477.7,87.2,477.7,89.7z"/>
		<path d="M494,91c0,2.7,1.7,4.1,4,4.1c1.3,0,2.7-0.6,3.7-1.6l2.4,2.1c-1.7,1.9-3.8,2.7-6,2.7c-3.4,0-7.4-1.7-7.4-8.5
			c0-6.5,3.7-8.6,6.9-8.6c3.7,0,6.9,2.7,6.9,7.1V91H494z M501.1,88.2c-0.1-2.5-1.6-3.9-3.5-3.9s-3.5,1.4-3.5,3.9H501.1z"/>
		<path d="M507.8,74.6c3.5,3.9,5.2,8.9,5.2,13.4s-1.8,9.6-5.2,13.4h-1.3c2-4.2,3.2-8.6,3.2-13.4c0-4.8-1.2-9.3-3.2-13.4H507.8z"/>
	</g>
	<g class="st29">
		<path d="M162.6,472.1l9.2-11.5c0.7-0.9,0.9-1.7,0.9-2.3c0-1.7-1.2-3.3-3.2-3.3c-1.8,0-3.3,1.3-3.4,3.4h-3.4c0-3.8,3-6.8,6.5-6.8
			c3.9,0,6.9,3,6.9,6.7c0,1.6-0.4,2.9-1.4,4.1l-7.6,9.5h9v3.4h-13.4V472.1z"/>
		<path d="M178.4,472.1l9.2-11.5c0.7-0.9,0.9-1.7,0.9-2.3c0-1.7-1.2-3.3-3.2-3.3c-1.8,0-3.3,1.3-3.4,3.4h-3.4c0-3.8,3-6.8,6.5-6.8
			c3.9,0,6.9,3,6.9,6.7c0,1.6-0.4,2.9-1.4,4.1l-7.6,9.5h9v3.4h-13.4V472.1z"/>
		<path d="M194.5,458.4c0-4.3,3.2-6.8,6.7-6.8c3.5,0,6.7,2.4,6.7,6.8v10.4c0,4.3-3.2,6.8-6.7,6.8c-3.5,0-6.7-2.4-6.7-6.8V458.4z
			 M204.4,458.6c0-2.3-1.3-3.6-3.3-3.6c-2,0-3.3,1.3-3.3,3.6v10c0,2.3,1.3,3.6,3.3,3.6c2,0,3.3-1.3,3.3-3.6V458.6z"/>
		<path d="M214.2,472.5c-1.8-2.1-3.6-5.5-3.6-9.8c0-6.1,3.5-10.7,8.5-10.7c5.4,0,8.3,5.3,8.3,10.5c0,4.4-1.8,8.1-3.6,10.1v0.1h4v2.7
			h-7.2v-2c1.8-1.5,3.5-4.9,3.5-10.1c0-4.2-1.7-8.4-5.1-8.4c-3.2,0-5.2,3.6-5.2,8.5c0,4.8,1.7,8.6,3.5,10v2h-7.2v-2.7L214.2,472.5
			L214.2,472.5z"/>
		<path d="M239.4,451.8h9.2c2,0,3.5,0.5,4.8,1.6c1.3,1.1,2.3,2.9,2.3,5c0,3-1.7,5.5-4.6,6.5l5.4,10.4h-4.2l-4.9-10H243v10h-3.6
			V451.8z M243,462.1h5.4c2.7,0,4-1.7,4-3.7c0-1.2-0.5-2.1-1.2-2.7c-0.7-0.5-1.4-0.7-2.6-0.7H243V462.1z"/>
		<path d="M261.8,468.2c0,2.7,1.7,4.1,4,4.1c1.3,0,2.7-0.6,3.7-1.6l2.4,2.1c-1.7,1.9-3.8,2.7-6,2.7c-3.4,0-7.4-1.7-7.4-8.5
			c0-6.5,3.7-8.6,6.9-8.6c3.7,0,6.9,2.7,6.9,7.1v2.8H261.8z M268.9,465.4c-0.1-2.5-1.6-3.9-3.5-3.9c-2,0-3.5,1.4-3.5,3.9H268.9z"/>
		<path d="M276.3,470.2c1.5,1.4,3,2.1,5.3,2.1c1.9,0,3.3-0.7,3.3-2.1c0-1.2-0.9-1.6-2-1.6l-3-0.3c-2.8-0.2-4.8-1.9-4.8-4.8
			c0-3.4,2.7-5.1,6.2-5.1c2.9,0,4.9,0.9,6.6,2.3l-2.1,2.4c-1.3-0.9-2.7-1.6-4.5-1.6c-2.1,0-2.9,0.9-2.9,2c0,0.7,0.5,1.5,2.2,1.6
			l2.8,0.2c3.5,0.2,4.9,2.3,4.9,5c0,3.3-3,5.1-6.9,5.1c-2.7,0-5.2-1-7.4-3L276.3,470.2z"/>
		<path d="M291.7,451.8h3.4v3.4h-3.4V451.8z M291.7,458.6h3.4v16.7h-3.4V458.6z"/>
		<path d="M300,470.2c1.5,1.4,3,2.1,5.3,2.1c1.9,0,3.3-0.7,3.3-2.1c0-1.2-0.9-1.6-2-1.6l-3-0.3c-2.8-0.2-4.8-1.9-4.8-4.8
			c0-3.4,2.7-5.1,6.2-5.1c2.9,0,4.9,0.9,6.6,2.3l-2.1,2.4c-1.3-0.9-2.7-1.6-4.5-1.6c-2.1,0-2.9,0.9-2.9,2c0,0.7,0.5,1.5,2.2,1.6
			l2.8,0.2c3.5,0.2,4.9,2.3,4.9,5c0,3.3-3,5.1-6.9,5.1c-2.7,0-5.2-1-7.4-3L300,470.2z"/>
		<path d="M315.6,453.5h3.4v5.1h2.4v2.6h-2.4v9.7c0,0.9,0.4,1.3,1.2,1.3h1.3v3.2h-1.8c-2.3,0-4.1-1.5-4.1-4.1v-10h-1.7v-2.6h1.7
			V453.5z"/>
		<path d="M325.5,460.5c0.9-1,2.5-2.1,5.1-2.1s4.2,1.1,5.1,2.1c1.3,1.4,1.8,2.8,1.8,6.4c0,3.6-0.5,5-1.8,6.4c-0.9,1-2.5,2.1-5.1,2.1
			s-4.2-1.1-5.1-2.1c-1.3-1.4-1.8-2.8-1.8-6.4C323.7,463.3,324.2,461.9,325.5,460.5z M333.3,463c-0.5-0.7-1.6-1.2-2.7-1.2
			s-2.2,0.5-2.7,1.2c-0.6,0.9-0.8,1.6-0.8,4c0,2.4,0.2,3.1,0.8,4c0.5,0.7,1.6,1.2,2.7,1.2s2.2-0.5,2.7-1.2c0.6-0.9,0.8-1.6,0.8-4
			C334.1,464.5,333.9,463.8,333.3,463z"/>
		<path d="M341,458.6h3.4v1.8h0.1c1.1-1.3,2.6-2,4.4-2c1.4,0,2.5,0.5,3.5,1.3l-2.4,2.9c-0.8-0.6-1.4-0.8-2.2-0.8
			c-1.7,0-3.3,1.1-3.3,3.5v10.1H341V458.6z"/>
	</g>
	<g class="st29">
		<path d="M1180.1,493.7l-3.3,2.4v-3.6l3.3-2.4h3.4v23.5h-3.4V493.7z"/>
		<path d="M1190.8,496.7c0-4.3,3.2-6.8,6.7-6.8c3.5,0,6.7,2.4,6.7,6.8V507c0,4.3-3.2,6.8-6.7,6.8c-3.5,0-6.7-2.4-6.7-6.8V496.7z
			 M1200.7,496.9c0-2.3-1.3-3.6-3.3-3.6c-2,0-3.3,1.3-3.3,3.6v10c0,2.3,1.3,3.6,3.3,3.6c2,0,3.3-1.3,3.3-3.6V496.9z"/>
		<path d="M1206.6,496.7c0-4.3,3.2-6.8,6.7-6.8c3.5,0,6.7,2.4,6.7,6.8V507c0,4.3-3.2,6.8-6.7,6.8c-3.5,0-6.7-2.4-6.7-6.8V496.7z
			 M1216.6,496.9c0-2.3-1.3-3.6-3.3-3.6c-2,0-3.3,1.3-3.3,3.6v10c0,2.3,1.3,3.6,3.3,3.6c2,0,3.3-1.3,3.3-3.6V496.9z"/>
		<path d="M1223.4,496.9h3.4v1.8h0.1c1.1-1.3,2.6-2,4.4-2c2.6,0,5.6,2,5.6,5.8v11.1h-3.4v-10c0-2.3-1.4-3.6-3.3-3.6
			c-1.9,0-3.3,1.3-3.3,3.6v10h-3.4V496.9z"/>
		<path d="M1241.4,490.1h15v3.4H1245v6.9h9.8v3.2h-9.8v10h-3.6V490.1z"/>
	</g>
	<g class="st29">
		<path d="M1192,541c-0.9,4.4-4.2,6.8-8.3,6.8c-3.7,0-6.2-2.2-7.4-4.2c-0.8-1.4-1-2.1-1-7.7c0-5.6,0.3-6.3,1-7.7
			c1.1-2,3.7-4.2,7.4-4.2c4.5,0,7.5,3.1,8.3,7h-3.8c-0.6-1.8-2.2-3.4-4.5-3.4c-1.7,0-2.9,0.8-3.6,1.7c-0.9,1.2-1.2,1.8-1.2,6.7
			c0,4.8,0.3,5.5,1.2,6.7c0.7,0.9,1.9,1.7,3.6,1.7c2,0,3.5-1.1,4.5-3.2H1192z"/>
		<path d="M1196.7,540.5c0,2.7,1.7,4.1,4,4.1c1.3,0,2.7-0.6,3.7-1.6l2.4,2.1c-1.7,1.9-3.8,2.7-6,2.7c-3.4,0-7.4-1.7-7.4-8.5
			c0-6.5,3.7-8.6,6.9-8.6c3.7,0,6.9,2.7,6.9,7.1v2.8H1196.7z M1203.8,537.7c-0.1-2.5-1.6-3.9-3.5-3.9s-3.5,1.4-3.5,3.9H1203.8z"/>
		<path d="M1210.7,530.9h3.4v1.8h0.1c1.1-1.3,2.6-2,4.4-2c1.4,0,2.5,0.5,3.5,1.3l-2.4,2.9c-0.8-0.6-1.4-0.8-2.2-0.8
			c-1.7,0-3.3,1.1-3.3,3.5v10.1h-3.4V530.9z"/>
		<path d="M1231.7,546.1L1231.7,546.1c-0.8,1.2-1.9,1.7-4.2,1.7c-3.7,0-5.9-2.2-5.9-5.1c0-2.7,1.8-5,5.4-5h4.7V536
			c0-1.6-1-2.1-3.4-2.1c-1.7,0-2.6,0.3-3.2,1.3l-2.6-2c1.3-1.8,3.1-2.4,5.6-2.4c4.1,0,7,1.4,7,5.5v11.4h-3.4V546.1z M1231.7,540.5
			h-4c-2,0-2.9,0.8-2.9,2c0,1.1,0.9,2.1,3.2,2.1c2.8,0,3.8-0.3,3.8-2.9V540.5z"/>
		<path d="M1239.6,530.9h3.4v1.8h0.1c1.1-1.3,2.6-2,4.4-2c2.3,0,3.5,1,4.7,2.2c1.4-1.5,3-2.2,5.3-2.2c2.6,0,5.6,2,5.6,5.8v11.1h-3.4
			v-10c0-2.3-1.4-3.6-3.3-3.6c-1.9,0-3.3,1.3-3.3,3.6v10h-3.4v-10c0-2.3-1.4-3.6-3.3-3.6c-1.9,0-3.3,1.3-3.3,3.6v10h-3.4V530.9z"/>
		<path d="M1267.7,524.1h3.4v3.4h-3.4V524.1z M1267.7,530.9h3.4v16.7h-3.4V530.9z"/>
		<path d="M1287.8,544.9c-1.5,1.7-3.5,2.9-6,2.9c-3.9,0-7.6-2.4-7.6-8.5c0-6.1,3.7-8.6,7.6-8.6c2.5,0,4.6,1.2,6,2.9l-2.5,2.2
			c-0.8-1-2-1.8-3.4-1.8c-2.7,0-4.4,1.6-4.4,5.2c0,3.6,1.6,5.2,4.4,5.2c1.4,0,2.6-0.7,3.4-1.8L1287.8,544.9z"/>
		<path d="M1314.2,541c-0.9,4.4-4.2,6.8-8.3,6.8c-3.7,0-6.2-2.2-7.4-4.2c-0.8-1.4-1-2.1-1-7.7c0-5.6,0.3-6.3,1-7.7
			c1.1-2,3.7-4.2,7.4-4.2c4.5,0,7.5,3.1,8.3,7h-3.8c-0.6-1.8-2.2-3.4-4.5-3.4c-1.7,0-2.9,0.8-3.6,1.7c-0.9,1.2-1.2,1.8-1.2,6.7
			c0,4.8,0.3,5.5,1.2,6.7c0.7,0.9,1.9,1.7,3.6,1.7c2,0,3.5-1.1,4.5-3.2H1314.2z"/>
		<path d="M1325.2,546.1L1325.2,546.1c-0.8,1.2-1.9,1.7-4.2,1.7c-3.7,0-5.9-2.2-5.9-5.1c0-2.7,1.8-5,5.4-5h4.7V536
			c0-1.6-1-2.1-3.4-2.1c-1.8,0-2.6,0.3-3.2,1.3l-2.6-2c1.3-1.8,3.1-2.4,5.6-2.4c4.1,0,7,1.4,7,5.5v11.4h-3.4V546.1z M1325.2,540.5
			h-4c-2,0-2.9,0.8-2.9,2c0,1.1,0.9,2.1,3.2,2.1c2.8,0,3.8-0.3,3.8-2.9V540.5z"/>
		<path d="M1332.9,530.9h3.4v1.7c1.1-1.2,2.6-1.9,4.3-1.9c2,0,3.5,0.9,4.5,2.2c0.9,1.2,1.2,2.3,1.2,6.4c0,4.1-0.3,5.2-1.2,6.4
			c-1,1.3-2.4,2.2-4.5,2.2c-1.7,0-3.1-0.8-4.3-2v8.5h-3.4V530.9z M1342.9,539.2c0-2.6-0.2-5.2-3.3-5.2c-3.1,0-3.3,2.8-3.3,5.2
			c0,2.4,0.2,5.2,3.3,5.2C1342.7,544.4,1342.9,541.8,1342.9,539.2z"/>
		<path d="M1358.8,546.1L1358.8,546.1c-0.8,1.2-1.9,1.7-4.2,1.7c-3.7,0-5.9-2.2-5.9-5.1c0-2.7,1.8-5,5.4-5h4.7V536
			c0-1.6-1-2.1-3.4-2.1c-1.8,0-2.6,0.3-3.2,1.3l-2.6-2c1.3-1.8,3.1-2.4,5.6-2.4c4.1,0,7,1.4,7,5.5v11.4h-3.4V546.1z M1358.8,540.5
			h-4c-2,0-2.9,0.8-2.9,2c0,1.1,0.9,2.1,3.2,2.1c2.8,0,3.8-0.3,3.8-2.9V540.5z"/>
		<path d="M1378.8,544.9c-1.5,1.7-3.5,2.9-6,2.9c-3.9,0-7.6-2.4-7.6-8.5c0-6.1,3.7-8.6,7.6-8.6c2.5,0,4.6,1.2,6,2.9l-2.5,2.2
			c-0.8-1-2-1.8-3.4-1.8c-2.7,0-4.4,1.6-4.4,5.2c0,3.6,1.6,5.2,4.4,5.2c1.4,0,2.6-0.7,3.4-1.8L1378.8,544.9z"/>
		<path d="M1381.3,524.1h3.4v3.4h-3.4V524.1z M1381.3,530.9h3.4v16.7h-3.4V530.9z"/>
		<path d="M1389.3,525.8h3.4v5.1h2.4v2.6h-2.4v9.7c0,0.9,0.4,1.3,1.2,1.3h1.3v3.2h-1.8c-2.3,0-4.1-1.5-4.1-4.1v-10h-1.7v-2.6h1.7
			V525.8z"/>
		<path d="M1399.3,532.8c0.9-1,2.5-2.1,5.1-2.1s4.2,1.1,5.1,2.1c1.3,1.4,1.8,2.8,1.8,6.4c0,3.6-0.5,5-1.8,6.4
			c-0.9,1-2.5,2.1-5.1,2.1s-4.2-1.1-5.1-2.1c-1.3-1.4-1.8-2.8-1.8-6.4C1397.4,535.6,1398,534.2,1399.3,532.8z M1407,535.3
			c-0.5-0.7-1.6-1.2-2.7-1.2s-2.2,0.5-2.7,1.2c-0.6,0.9-0.8,1.6-0.8,4c0,2.4,0.2,3.1,0.8,4c0.5,0.7,1.6,1.2,2.7,1.2s2.2-0.5,2.7-1.2
			c0.6-0.9,0.8-1.6,0.8-4C1407.9,536.8,1407.7,536.1,1407,535.3z"/>
		<path d="M1414.8,530.9h3.4v1.8h0.1c1.1-1.3,2.6-2,4.4-2c1.4,0,2.5,0.5,3.5,1.3l-2.4,2.9c-0.8-0.6-1.4-0.8-2.2-0.8
			c-1.7,0-3.3,1.1-3.3,3.5v10.1h-3.4V530.9z"/>
	</g>
	<g class="st29">
		<path d="M1328.2,692h3.6v12.1h0.1l9.7-12.1h4.2l-7.5,9.3l8.3,14.2h-4.2l-6.4-11.5l-4.1,4.3v7.2h-3.6V692z"/>
		<path d="M1353.1,705.8L1346,692h3.8l5,10.4l5-10.4h3.8l-7.1,13.8v9.7h-3.4V705.8z"/>
		<path d="M1361.1,704.7h9.9v3.4h-9.9V704.7z"/>
		<path d="M1374,698.6c0-4.3,3.2-6.8,6.7-6.8c3.5,0,6.7,2.4,6.7,6.8v10.4c0,4.3-3.2,6.8-6.7,6.8c-3.5,0-6.7-2.4-6.7-6.8V698.6z
			 M1384,698.8c0-2.3-1.3-3.6-3.3-3.6c-2,0-3.3,1.3-3.3,3.6v10c0,2.3,1.3,3.6,3.3,3.6c2,0,3.3-1.3,3.3-3.6V698.8z"/>
		<path d="M1389,708.8l7.9-16.8h3.8l-8,16.8h6.1v-6.8h3.4v6.8h1.9v3.2h-1.9v3.5h-3.4V712h-9.8V708.8z"/>
		<path d="M1405.7,698.6c0-4.3,3.2-6.8,6.7-6.8c3.5,0,6.7,2.4,6.7,6.8v10.4c0,4.3-3.2,6.8-6.7,6.8c-3.5,0-6.7-2.4-6.7-6.8V698.6z
			 M1415.7,698.8c0-2.3-1.3-3.6-3.3-3.6c-2,0-3.3,1.3-3.3,3.6v10c0,2.3,1.3,3.6,3.3,3.6c2,0,3.3-1.3,3.3-3.6V698.8z"/>
	</g>
	<g class="st29">
		<path d="M1328.2,726h9.2c2,0,3.5,0.5,4.8,1.6c1.3,1.1,2.3,2.9,2.3,5c0,3-1.7,5.5-4.6,6.5l5.4,10.4h-4.2l-4.9-10h-4.6v10h-3.6V726z
			 M1331.7,736.3h5.4c2.7,0,4-1.7,4-3.7c0-1.2-0.5-2.1-1.2-2.7c-0.7-0.5-1.4-0.7-2.6-0.7h-5.6V736.3z"/>
		<path d="M1349,734.7c0.9-1,2.5-2.1,5.1-2.1s4.2,1.1,5.1,2.1c1.3,1.4,1.8,2.8,1.8,6.4c0,3.6-0.5,5-1.8,6.4c-0.9,1-2.5,2.1-5.1,2.1
			s-4.2-1.1-5.1-2.1c-1.3-1.4-1.8-2.8-1.8-6.4C1347.2,737.5,1347.7,736.1,1349,734.7z M1356.8,737.2c-0.5-0.7-1.6-1.2-2.7-1.2
			s-2.2,0.5-2.7,1.2c-0.6,0.9-0.8,1.6-0.8,4c0,2.4,0.2,3.1,0.8,4c0.5,0.7,1.6,1.2,2.7,1.2s2.2-0.5,2.7-1.2c0.6-0.9,0.8-1.6,0.8-4
			C1357.6,738.7,1357.4,738,1356.8,737.2z"/>
		<path d="M1364.7,727.7h3.4v5.1h2.4v2.6h-2.4v9.7c0,0.9,0.4,1.3,1.2,1.3h1.3v3.2h-1.7c-2.3,0-4.1-1.5-4.1-4.1v-10h-1.7v-2.6h1.7
			V727.7z"/>
		<path d="M1382.5,748L1382.5,748c-0.8,1.2-1.9,1.7-4.2,1.7c-3.7,0-5.9-2.2-5.9-5.1c0-2.7,1.8-5,5.4-5h4.7v-1.7c0-1.6-1-2.1-3.4-2.1
			c-1.7,0-2.6,0.3-3.2,1.3l-2.6-2c1.3-1.8,3.1-2.4,5.6-2.4c4.1,0,7,1.4,7,5.5v11.4h-3.4V748z M1382.5,742.4h-4c-2,0-2.9,0.8-2.9,2
			c0,1.1,0.9,2.1,3.2,2.1c2.8,0,3.8-0.3,3.8-2.9V742.4z"/>
		<path d="M1390.2,732.8h3.4v1.8h0.1c1.1-1.3,2.6-2,4.4-2c1.4,0,2.5,0.5,3.5,1.3l-2.4,2.9c-0.8-0.6-1.4-0.8-2.2-0.8
			c-1.7,0-3.3,1.1-3.3,3.5v10.1h-3.4V732.8z"/>
		<path d="M1400.6,732.8h3.6l4,11.7h0.1l4-11.7h3.6l-7.2,20.2c-0.9,2.6-2.7,3.3-4.7,3.3h-1.1v-3.2h1c0.9,0,1.7-0.5,2-1.5l0.9-2.8
			L1400.6,732.8z"/>
		<path d="M1425.9,726h15v3.4h-11.5v6.7h9.8v3.2h-9.8v6.9h11.5v3.4h-15V726z"/>
		<path d="M1443.9,732.8h3.4v1.8h0.1c1.1-1.3,2.6-2,4.4-2c2.6,0,5.6,2,5.6,5.8v11.1h-3.4v-10c0-2.3-1.4-3.6-3.3-3.6
			c-1.9,0-3.3,1.3-3.3,3.6v10h-3.4V732.8z"/>
		<path d="M1474,746.8c-1.5,1.7-3.5,2.9-6,2.9c-3.9,0-7.6-2.4-7.6-8.5c0-6.1,3.7-8.6,7.6-8.6c2.5,0,4.6,1.2,6,2.9l-2.5,2.2
			c-0.8-1-2-1.8-3.4-1.8c-2.7,0-4.4,1.6-4.4,5.2c0,3.6,1.6,5.2,4.4,5.2c1.4,0,2.6-0.7,3.4-1.8L1474,746.8z"/>
		<path d="M1477.3,734.7c0.9-1,2.5-2.1,5.1-2.1s4.2,1.1,5.1,2.1c1.3,1.4,1.8,2.8,1.8,6.4c0,3.6-0.5,5-1.8,6.4
			c-0.9,1-2.5,2.1-5.1,2.1s-4.2-1.1-5.1-2.1c-1.3-1.4-1.8-2.8-1.8-6.4C1475.5,737.5,1476,736.1,1477.3,734.7z M1485.1,737.2
			c-0.5-0.7-1.6-1.2-2.7-1.2s-2.2,0.5-2.7,1.2c-0.6,0.9-0.8,1.6-0.8,4c0,2.4,0.2,3.1,0.8,4c0.5,0.7,1.6,1.2,2.7,1.2s2.2-0.5,2.7-1.2
			c0.6-0.9,0.8-1.6,0.8-4C1485.9,738.7,1485.7,738,1485.1,737.2z"/>
		<path d="M1502.8,747.7c-1.1,1.2-2.6,1.9-4.3,1.9c-2,0-3.5-0.9-4.5-2.2c-0.9-1.2-1.2-2.3-1.2-6.4c0-4.1,0.3-5.2,1.2-6.4
			c1-1.3,2.4-2.2,4.5-2.2c1.7,0,3.1,0.8,4.3,2V726h3.4v23.5h-3.4V747.7z M1496.2,741.1c0,2.6,0.2,5.2,3.3,5.2c3.1,0,3.3-2.8,3.3-5.2
			c0-2.4-0.2-5.2-3.3-5.2C1496.3,735.9,1496.2,738.5,1496.2,741.1z"/>
		<path d="M1512.5,742.4c0,2.7,1.7,4.1,4,4.1c1.3,0,2.7-0.6,3.7-1.6l2.4,2.1c-1.7,1.9-3.8,2.7-6,2.7c-3.4,0-7.4-1.7-7.4-8.5
			c0-6.5,3.7-8.6,6.9-8.6c3.7,0,6.9,2.7,6.9,7.1v2.8H1512.5z M1519.5,739.6c-0.1-2.5-1.6-3.9-3.5-3.9s-3.5,1.4-3.5,3.9H1519.5z"/>
		<path d="M1526.4,732.8h3.4v1.8h0.1c1.1-1.3,2.6-2,4.4-2c1.4,0,2.5,0.5,3.5,1.3l-2.4,2.9c-0.8-0.6-1.4-0.8-2.2-0.8
			c-1.7,0-3.3,1.1-3.3,3.5v10.1h-3.4V732.8z"/>
	</g>
</g>
</svg>
